<?xml version="1.0" encoding="UTF-8" standalone="no"?>
<svg width="236.32785mm" height="47.36602mm" viewBox="0 0 236.32785 47.36602" version="1.1"
    xmlns="http://www.w3.org/2000/svg" xmlns:svg="http://www.w3.org/2000/svg">
    <g transform="translate(-7.2608843,-135.74703)">
        <path
            d="m 207.81617,135.74703 c -1.78741,0 -3.44567,0.28201 -4.97438,0.84646 -1.50518,0.56444 -2.82229,1.39938 -3.95118,2.50476 -1.12889,1.08185 -2.01083,2.42271 -2.64583,4.02197 -0.16037,0.41326 -0.29975,0.84172 -0.41806,1.28571 h 5.91437 c 0.0781,-0.17769 0.16303,-0.34737 0.25424,-0.50953 0.65852,-1.1524 1.49346,-1.98735 2.50476,-2.50475 1.03481,-0.51742 2.11639,-0.77618 3.24528,-0.77618 1.27001,0 2.3991,0.141 3.38687,0.42323 1.0113,0.28222 1.89324,0.62338 2.64584,1.02319 l 1.5875,-4.44521 c -0.25871,-0.16462 -0.71763,-0.38801 -1.37615,-0.67024 -0.65852,-0.30575 -1.50507,-0.57614 -2.53989,-0.81132 -1.03482,-0.2587 -2.24578,-0.38809 -3.63337,-0.38809 z m -188.947649,0.28215 c -0.987778,0 -2.175496,0.047 -3.56309,0.14108 -1.364074,0.0705 -2.681179,0.2237 -3.95118,0.45889 v 7.77678 h 5.503023 v -3.57911 c 0.352778,-0.047 0.729316,-0.0703 1.129131,-0.0703 0.399815,-0.0235 0.787973,-0.0351 1.16427,-0.0351 2.751668,0 4.762188,0.65856 6.032189,1.97559 0.467838,0.48517 0.849653,1.05463 1.14515,1.70894 h 5.985681 c -0.287921,-1.16247 -0.712583,-2.19085 -1.27434,-3.08508 -1.152408,-1.83445 -2.775287,-3.17479 -4.868437,-4.02146 -2.069631,-0.84667 -4.503691,-1.27021 -7.302397,-1.27021 z m 91.792339,0 c -0.7526,0 -1.56378,0.0237 -2.43396,0.0708 -0.87019,0.047 -1.74051,0.11728 -2.6107,0.21136 -0.84666,0.0941 -1.64622,0.21183 -2.39882,0.35295 v 7.74164 h 5.36247 v -3.8256 c 0.42333,-0.0471 0.90549,-0.0708 1.44642,-0.0708 0.54093,-0.0235 1.04634,-0.0351 1.5167,-0.0351 1.45816,0 2.56349,0.19963 3.31608,0.59945 0.75259,0.39981 1.12913,1.09374 1.12913,2.08152 0,0.47645 -0.0927,0.89329 -0.27802,1.25057 h 5.39347 c 0.14068,-0.47107 0.21136,-0.97023 0.21136,-1.49758 0,-1.74037 -0.45893,-3.10448 -1.37615,-4.09226 -0.91722,-1.0113 -2.17518,-1.72847 -3.77444,-2.1518 -1.59926,-0.42334 -3.43392,-0.63511 -5.50354,-0.63511 z m 23.42441,0 c -1.0113,0 -2.16364,0.047 -3.45716,0.14108 -1.27,0.0941 -2.50472,0.25884 -3.70416,0.49403 v 7.74164 h 5.50354 v -3.57911 c 0.28222,-0.0235 0.57585,-0.0467 0.8816,-0.0703 0.32925,-0.0235 0.69417,-0.0351 1.09399,-0.0351 1.17592,0 2.1635,0.11725 2.96312,0.35244 0.79964,0.21166 1.39956,0.56444 1.79938,1.05833 0.39981,0.47037 0.59944,1.10568 0.59944,1.90531 0,0.1265 -0.005,0.24918 -0.0139,0.36845 h 5.68854 c 0.003,-0.10976 0.005,-0.22082 0.005,-0.33331 0,-2.75167 -0.97595,-4.77433 -2.92799,-6.06785 -1.95204,-1.31704 -4.76264,-1.97559 -8.43152,-1.97559 z m -90.345915,0.28216 c -1.081853,2.25778 -2.140185,4.59783 -3.175,7.02024 -0.147604,0.35356 -0.296345,0.71177 -0.445451,1.07435 h 5.18728 c 0.154405,-0.39902 0.290848,-0.76885 0.408761,-1.10949 0.235185,-0.61149 0.411574,-1.09365 0.529166,-1.44642 0.141112,0.35277 0.329122,0.83493 0.564307,1.44642 0.131014,0.34064 0.272904,0.71047 0.425814,1.10949 h 5.339209 c -0.404774,-0.98338 -0.809623,-1.941 -1.214397,-2.87321 -0.776111,-1.78741 -1.564049,-3.52805 -2.36368,-5.22138 z m 13.158369,0 v 4.69222 h 7.373194 v 3.40237 h 5.503023 v -3.40237 h 7.373193 v -4.69222 z m 28.151771,0 c -1.081853,2.25778 -2.140185,4.59783 -3.175,7.02024 -0.147604,0.35356 -0.296345,0.71177 -0.445451,1.07435 h 5.18728 c 0.154405,-0.39902 0.290847,-0.76885 0.408761,-1.10949 0.235185,-0.61149 0.411574,-1.09365 0.529166,-1.44642 0.141111,0.35277 0.329121,0.83493 0.564307,1.44642 0.131014,0.34064 0.272904,0.71047 0.425814,1.10949 h 5.339209 c -0.404774,-0.98338 -0.809623,-1.941 -1.214397,-2.87321 -0.776112,-1.78741 -1.56405,-3.52805 -2.36368,-5.22138 z m 65.404795,0 v 8.09459 h 5.50354 v -3.47317 h 11.00657 v -4.62142 z m 28.6458,0 c -1.08185,2.25778 -2.14019,4.59783 -3.175,7.02024 -0.1476,0.35356 -0.29634,0.71177 -0.44545,1.07435 h 5.18728 c 0.15441,-0.39902 0.29085,-0.76885 0.40876,-1.10949 0.23518,-0.61149 0.41157,-1.09365 0.52917,-1.44642 0.14111,0.35277 0.32912,0.83493 0.5643,1.44642 0.13102,0.34064 0.27291,0.71047 0.42582,1.10949 h 5.33921 c -0.40478,-0.98338 -0.80963,-1.941 -1.2144,-2.87321 -0.77611,-1.78741 -1.56405,-3.52805 -2.36368,-5.22138 z m 40.14587,0 v 8.09459 h 5.50354 v -8.09459 z m 14.74587,0 v 8.09459 h 5.50354 v -8.09459 z M 11.354251,152.59406 v 7.84759 c 1.270001,0.2587 2.563345,0.42295 3.880383,0.49351 1.317038,0.0941 2.469376,0.14107 3.457154,0.14107 2.89278,0 5.385981,-0.4584 7.47913,-1.37562 2.116668,-0.91723 3.739547,-2.30457 4.868437,-4.16254 0.542412,-0.8745 0.957257,-1.85589 1.244368,-2.94401 h -6.034257 c -0.306665,0.62439 -0.697118,1.18224 -1.172021,1.6738 -1.317038,1.3876 -3.351836,2.08153 -6.103504,2.08153 h -1.23455 c -0.32926,-0.0235 -0.623413,-0.0473 -0.882117,-0.0708 v -3.68453 z m 25.567432,0 c -0.91447,2.4874 -1.887589,5.20891 -2.919202,8.16488 h 5.714897 c 0.258703,-0.84667 0.541235,-1.71699 0.846977,-2.61069 0.329259,-0.8937 0.646656,-1.78727 0.952396,-2.68098 h 9.525 c 0.305741,0.89371 0.611516,1.78728 0.917257,2.68098 0.329259,0.8937 0.622896,1.76402 0.8816,2.61069 h 5.89163 c -0.917223,-2.63407 -1.799166,-5.06813 -2.645833,-7.3024 -0.106802,-0.28989 -0.213352,-0.57734 -0.319361,-0.86248 z m 27.349235,0 v 8.16488 h 5.503023 v -8.16488 z m 13.960905,0 c -0.914471,2.4874 -1.887589,5.20891 -2.919202,8.16488 h 5.714897 c 0.258704,-0.84667 0.541235,-1.71699 0.846977,-2.61069 0.329259,-0.8937 0.646655,-1.78727 0.952396,-2.68098 h 9.525 c 0.305741,0.89371 0.611516,1.78728 0.917257,2.68098 0.32926,0.8937 0.623413,1.76402 0.882117,2.61069 h 5.891115 c -0.917222,-2.63407 -1.799168,-5.06813 -2.645836,-7.3024 -0.106801,-0.28989 -0.213351,-0.57734 -0.31936,-0.86248 z m 24.985557,0 v 7.77679 c 0.96426,0.18815 1.89321,0.32916 2.78691,0.42323 0.91722,0.11757 1.81079,0.18834 2.68098,0.21187 0.8937,0.0471 1.78779,0.0703 2.68149,0.0703 3.69241,0 6.46763,-0.64641 8.32559,-1.93993 1.88148,-1.29352 2.82205,-3.22217 2.82205,-5.78569 0,-0.25753 -0.0119,-0.50966 -0.0351,-0.75655 h -5.59191 c 0.0354,0.20321 0.0532,0.4199 0.0532,0.65061 0,0.84667 -0.23553,1.51684 -0.7059,2.01073 -0.44686,0.47037 -1.08165,0.81153 -1.9048,1.02319 -0.82314,0.18815 -1.78747,0.28216 -2.89284,0.28216 -0.56445,0 -1.082,-0.0116 -1.55236,-0.0351 -0.47038,-0.0235 -0.90502,-0.0589 -1.30483,-0.10594 v -3.82561 z m 23.70657,0 v 8.16488 h 5.50354 v -8.16488 z m 8.84184,0 c 0.42125,0.54668 0.83682,1.15153 1.24746,1.81488 0.635,0.98777 1.27031,2.02287 1.90531,3.10472 0.635,1.08185 1.24656,2.16343 1.83452,3.24528 h 6.17326 c -0.42333,-0.8937 -0.88173,-1.79889 -1.37562,-2.71611 -0.49389,-0.91723 -1.01144,-1.81131 -1.55236,-2.68149 -0.51741,-0.89371 -1.04658,-1.72865 -1.5875,-2.50476 -0.0618,-0.0887 -0.12329,-0.17598 -0.18449,-0.26252 z m 14.6885,0 v 8.16488 h 17.32143 v -4.62142 h -11.81789 v -3.54346 z m 21.82813,0 c -0.91447,2.4874 -1.88759,5.20891 -2.9192,8.16488 h 5.71489 c 0.25871,-0.84667 0.54124,-1.71699 0.84698,-2.61069 0.32926,-0.8937 0.64666,-1.78727 0.9524,-2.68098 h 9.525 c 0.30574,0.89371 0.61151,1.78728 0.91725,2.68098 0.32926,0.8937 0.6229,1.76402 0.8816,2.61069 h 5.89163 c -0.91722,-2.63407 -1.79916,-5.06813 -2.64583,-7.3024 -0.1068,-0.28989 -0.21335,-0.57734 -0.31936,-0.86248 z m 23.45645,0 c 0.22732,1.02825 0.54888,1.97425 0.9648,2.83807 0.94074,1.905 2.31646,3.35149 4.12739,4.33927 1.83444,0.98778 4.06887,1.48157 6.70295,1.48157 1.85796,0 3.49247,-0.18801 4.90358,-0.56431 1.41111,-0.37629 2.50431,-0.79983 3.28042,-1.27021 l -1.5167,-4.40955 c -0.58796,0.28222 -1.36428,0.588 -2.32854,0.91726 -0.94074,0.30574 -2.22247,0.45837 -3.84525,0.45837 -1.69333,0 -3.05743,-0.35278 -4.09225,-1.05833 -0.97584,-0.68083 -1.69978,-1.59145 -2.17196,-2.73214 z m 23.50709,0 v 8.16488 h 5.50354 v -8.16488 z m 14.74587,0 v 8.16488 h 5.50354 v -8.16488 z" />
        <rect
            style="fill:#000000;fill-opacity:1;stroke-width:2.01577;stroke-linecap:square;stroke-linejoin:round;stroke-miterlimit:10"
            width="236.32785" height="4.7370834" x="7.2608843" y="146.13147" />
        <path
            d="m 14.000808,180.27644 q -1.161188,0 -1.940843,-0.19906 -0.763066,-0.19906 -1.061657,-0.33177 l 0.41471,-2.00719 q 0.630359,0.24882 1.293895,0.39812 0.663536,0.13271 1.310483,0.13271 0.680125,0 0.962128,-0.13271 0.282002,-0.13271 0.282002,-0.51424 0,-0.19906 -0.165884,-0.34836 -0.165884,-0.16588 -0.497652,-0.33177 -0.315179,-0.16588 -0.812831,-0.34835 -0.763067,-0.29859 -1.343661,-0.63036 -0.580594,-0.33177 -0.895773,-0.84601 -0.31518,-0.53083 -0.31518,-1.37684 0,-0.82942 0.41471,-1.41001 0.41471,-0.59718 1.177777,-0.91236 0.763066,-0.33177 1.824724,-0.33177 0.796243,0 1.526132,0.14929 0.72989,0.13271 1.161188,0.2986 l -0.431298,1.92425 q -0.431298,-0.1493 -0.945539,-0.26541 -0.497652,-0.11612 -1.128011,-0.11612 -0.580594,0 -0.879185,0.16588 -0.282003,0.1493 -0.282003,0.48106 0,0.18248 0.09953,0.34836 0.09953,0.1493 0.381534,0.29859 0.282002,0.1493 0.82942,0.34836 1.094834,0.39812 1.675428,0.79624 0.597182,0.39812 0.82942,0.91236 0.232238,0.49766 0.232238,1.22755 0,0.86259 -0.431299,1.44319 -0.431298,0.58059 -1.260718,0.87918 -0.82942,0.29859 -2.023785,0.29859 z m 9.289482,-0.0332 q -1.476368,0 -2.322376,-0.51424 -0.82942,-0.53083 -1.161188,-1.4432 -0.331768,-0.91236 -0.331768,-2.10672 v -4.8604 h 2.471672 v 4.56181 q 0,0.79624 0.132707,1.29389 0.132707,0.49765 0.464475,0.72989 0.331768,0.23224 0.895774,0.23224 0.265414,0 0.564005,-0.0166 0.298591,-0.0332 0.530829,-0.0663 v -6.73489 h 2.471672 v 8.4269 q -0.63036,0.18248 -1.625664,0.33177 -0.995304,0.16589 -2.090138,0.16589 z m 6.038157,2.86979 V 171.6173 q 0.447887,-0.13271 1.045069,-0.24883 0.613771,-0.11612 1.260719,-0.18247 0.663536,-0.0663 1.260718,-0.0663 1.443191,0 2.455083,0.564 1.011893,0.54742 1.542721,1.5759 0.547418,1.02848 0.547418,2.42191 0,1.34366 -0.447887,2.37214 -0.431299,1.01189 -1.277307,1.59248 -0.846008,0.56401 -2.090138,0.56401 -0.514241,0 -0.962128,-0.0995 -0.447886,-0.0995 -0.862596,-0.282 v 3.2845 z m 3.83192,-4.99311 q 0.447887,0 0.763067,-0.1493 0.331768,-0.14929 0.547417,-0.44788 0.232238,-0.29859 0.331768,-0.72989 0.116119,-0.44789 0.116119,-1.04507 0,-0.76307 -0.232238,-1.32707 -0.232237,-0.56401 -0.680124,-0.87919 -0.447887,-0.31518 -1.128011,-0.31518 -0.331768,0 -0.613771,0.0332 -0.282003,0.0166 -0.464475,0.0498 v 4.46228 q 0.232237,0.1493 0.597182,0.24883 0.381533,0.0995 0.763066,0.0995 z m 6.187443,1.92425 v -8.26102 q 0.663536,-0.23224 1.55931,-0.4313 0.912362,-0.21565 2.023785,-0.21565 0.265414,0 0.646947,0.0498 0.398122,0.0332 0.779655,0.0995 0.398122,0.0663 0.663536,0.18247 l -0.41471,2.04038 q -0.331768,-0.0829 -0.779655,-0.16589 -0.447886,-0.0995 -0.962127,-0.0995 -0.232237,0 -0.564005,0.0498 -0.31518,0.0332 -0.481064,0.0829 v 6.66853 z m 7.00029,0 v -8.72549 h 2.471672 v 8.72549 z m 1.24413,-9.95304 q -0.597182,0 -1.045069,-0.38153 -0.431298,-0.39812 -0.431298,-1.07824 0,-0.68013 0.431298,-1.06166 0.447887,-0.39812 1.045069,-0.39812 0.597183,0 1.028481,0.39812 0.447887,0.38153 0.447887,1.06166 0,0.68012 -0.447887,1.07824 -0.431298,0.38153 -1.028481,0.38153 z m 6.038171,10.18528 q -1.161188,0 -1.940843,-0.19906 -0.763066,-0.19906 -1.061657,-0.33177 l 0.41471,-2.00719 q 0.630359,0.24882 1.293895,0.39812 0.663536,0.13271 1.310483,0.13271 0.680125,0 0.962128,-0.13271 0.282002,-0.13271 0.282002,-0.51424 0,-0.19906 -0.165884,-0.34836 -0.165884,-0.16588 -0.497652,-0.33177 -0.315179,-0.16588 -0.812831,-0.34835 -0.763067,-0.29859 -1.343661,-0.63036 -0.580594,-0.33177 -0.895773,-0.84601 -0.31518,-0.53083 -0.31518,-1.37684 0,-0.82942 0.41471,-1.41001 0.41471,-0.59718 1.177777,-0.91236 0.763066,-0.33177 1.824724,-0.33177 0.796243,0 1.526132,0.14929 0.72989,0.13271 1.161188,0.2986 l -0.431298,1.92425 q -0.431298,-0.1493 -0.945539,-0.26541 -0.497652,-0.11612 -1.128011,-0.11612 -0.580594,0 -0.879185,0.16588 -0.282003,0.1493 -0.282003,0.48106 0,0.18248 0.09953,0.34836 0.09953,0.1493 0.381534,0.29859 0.282002,0.1493 0.82942,0.34836 1.094834,0.39812 1.675428,0.79624 0.597182,0.39812 0.82942,0.91236 0.232238,0.49766 0.232238,1.22755 0,0.86259 -0.431299,1.44319 -0.431298,0.58059 -1.260718,0.87918 -0.82942,0.29859 -2.023785,0.29859 z m 9.753954,0 q -1.575898,0 -2.604379,-0.59718 -1.011892,-0.59718 -1.509544,-1.62566 -0.497652,-1.02848 -0.497652,-2.30579 0,-1.54272 0.597183,-2.5712 0.61377,-1.04507 1.559309,-1.55931 0.962127,-0.53083 2.023785,-0.53083 1.24413,0 2.139903,0.51424 0.895774,0.49765 1.376838,1.49296 0.497652,0.9953 0.497652,2.47167 0,0.21565 -0.01659,0.48106 -0.01659,0.24883 -0.03318,0.44789 h -5.606879 q 0.08294,0.76306 0.713301,1.21095 0.63036,0.44789 1.692017,0.44789 0.680125,0 1.327072,-0.11612 0.663536,-0.13271 1.078246,-0.31518 l 0.331768,2.0072 q -0.398121,0.19906 -1.277307,0.36494 -0.862596,0.18247 -1.791547,0.18247 z m -2.07355,-5.47417 h 3.267915 q -0.01659,-0.41471 -0.182472,-0.79624 -0.165884,-0.38154 -0.514241,-0.63036 -0.331768,-0.24883 -0.895773,-0.24883 -0.564006,0 -0.912362,0.24883 -0.331768,0.23224 -0.514241,0.61377 -0.182472,0.38153 -0.248826,0.81283 z m 15.676028,5.45758 q -1.443191,0 -2.455084,-0.54741 -1.011892,-0.54742 -1.559309,-1.55931 -0.530829,-1.02848 -0.530829,-2.42191 0,-1.4266 0.464475,-2.45508 0.464475,-1.02848 1.327072,-1.5759 0.879185,-0.56401 2.106727,-0.56401 0.51424,0 0.912362,0.0995 0.41471,0.0995 0.82942,0.28201 v -3.94804 l 2.471672,-0.39812 v 12.59059 q -0.431299,0.13271 -1.04507,0.24883 -0.61377,0.11612 -1.277306,0.18247 -0.646948,0.0663 -1.24413,0.0663 z m 0.01659,-2.10672 q 0.331768,0 0.613771,-0.0166 0.282003,-0.0332 0.464475,-0.0663 v -4.49546 q -0.232238,-0.1493 -0.613771,-0.24883 -0.364945,-0.0995 -0.746478,-0.0995 -0.447887,0 -0.779655,0.1493 -0.315179,0.14929 -0.547417,0.44788 -0.215649,0.2986 -0.331768,0.74648 -0.09953,0.44789 -0.09953,1.04507 0,0.76307 0.232237,1.34366 0.232238,0.56401 0.680125,0.87919 0.464475,0.31518 1.128011,0.31518 z m 10.069129,2.12331 q -1.575898,0 -2.604379,-0.59718 -1.011893,-0.59718 -1.509545,-1.62566 -0.497652,-1.02848 -0.497652,-2.30579 0,-1.54272 0.597183,-2.5712 0.613771,-1.04507 1.559309,-1.55931 0.962128,-0.53083 2.023785,-0.53083 1.24413,0 2.139904,0.51424 0.895773,0.49765 1.376837,1.49296 0.497652,0.9953 0.497652,2.47167 0,0.21565 -0.01659,0.48106 -0.01659,0.24883 -0.03318,0.44789 H 84.999 q 0.08294,0.76306 0.713301,1.21095 0.630359,0.44789 1.692017,0.44789 0.680124,0 1.327072,-0.11612 0.663536,-0.13271 1.078246,-0.31518 l 0.331768,2.0072 q -0.398122,0.19906 -1.277307,0.36494 -0.862597,0.18247 -1.791547,0.18247 z M 84.999,174.80227 h 3.267914 q -0.01659,-0.41471 -0.182472,-0.79624 -0.165884,-0.38154 -0.51424,-0.63036 -0.331768,-0.24883 -0.895774,-0.24883 -0.564006,0 -0.912362,0.24883 -0.331768,0.23224 -0.51424,0.61377 -0.182473,0.38153 -0.248826,0.81283 z m 11.694818,5.47417 q -1.592486,0 -2.604379,-0.61377 -0.995304,-0.61377 -1.476367,-1.64225 -0.464476,-1.04507 -0.464476,-2.33896 0,-1.26072 0.530829,-2.30579 0.547417,-1.04507 1.542721,-1.65884 1.011893,-0.63036 2.421907,-0.63036 0.696713,0 1.277307,0.13271 0.580594,0.11611 1.128011,0.34835 l -0.514241,1.97402 q -0.348356,-0.13271 -0.763066,-0.23224 -0.41471,-0.0995 -0.92895,-0.0995 -1.094835,0 -1.642252,0.68013 -0.530829,0.68012 -0.530829,1.79155 0,0.77965 0.215649,1.34366 0.21565,0.54741 0.713302,0.846 0.51424,0.28201 1.34366,0.28201 0.447887,0 0.962127,-0.0829 0.514241,-0.0829 0.945539,-0.26542 l 0.348356,2.02379 q -0.431298,0.18247 -1.078246,0.31518 -0.646947,0.1327 -1.426602,0.1327 z m 7.945812,0 q -1.57589,0 -2.60437,-0.59718 -1.0119,-0.59718 -1.50955,-1.62566 -0.49765,-1.02848 -0.49765,-2.30579 0,-1.54272 0.59718,-2.5712 0.61377,-1.04507 1.55931,-1.55931 0.96213,-0.53083 2.02379,-0.53083 1.24413,0 2.1399,0.51424 0.89577,0.49765 1.37684,1.49296 0.49765,0.9953 0.49765,2.47167 0,0.21565 -0.0166,0.48106 -0.0166,0.24883 -0.0332,0.44789 h -5.60688 q 0.0829,0.76306 0.71331,1.21095 0.63036,0.44789 1.69201,0.44789 0.68013,0 1.32707,-0.11612 0.66354,-0.13271 1.07825,-0.31518 l 0.33177,2.0072 q -0.39812,0.19906 -1.27731,0.36494 -0.86259,0.18247 -1.79155,0.18247 z m -2.07355,-5.47417 h 3.26792 q -0.0166,-0.41471 -0.18247,-0.79624 -0.16589,-0.38154 -0.51424,-0.63036 -0.33177,-0.24883 -0.89578,-0.24883 -0.564,0 -0.91236,0.24883 -0.33177,0.23224 -0.51424,0.61377 -0.18247,0.38153 -0.24883,0.81283 z m 7.56431,5.24193 v -8.4269 q 0.63036,-0.18247 1.62566,-0.33177 0.99531,-0.16588 2.09014,-0.16588 1.49296,0 2.32238,0.51424 0.82942,0.49765 1.16119,1.39342 0.33177,0.89578 0.33177,2.09014 v 4.92675 h -2.47168 v -4.62816 q 0,-0.79624 -0.1327,-1.27731 -0.13271,-0.48106 -0.46448,-0.69671 -0.31518,-0.21565 -0.89577,-0.21565 -0.26542,0 -0.56401,0.0332 -0.29859,0.0166 -0.53083,0.0498 v 6.73489 z m 13.13799,0.19907 q -1.34366,0 -2.10672,-0.46448 -0.74648,-0.48106 -1.04507,-1.32707 -0.29859,-0.84601 -0.29859,-1.97402 v -7.33207 l 2.47167,-0.39813 v 2.57121 h 2.96932 v 2.05696 h -2.96932 v 3.06885 q 0,0.51424 0.11612,0.91236 0.11611,0.38154 0.41471,0.59719 0.29859,0.19906 0.846,0.19906 0.39813,0 0.81284,-0.0664 0.43129,-0.0829 0.77965,-0.21565 l 0.34836,1.92426 q -0.44789,0.18247 -0.99531,0.31518 -0.54741,0.13271 -1.34366,0.13271 z m 3.99778,-0.19907 v -8.26102 q 0.66353,-0.23224 1.55931,-0.4313 0.91236,-0.21565 2.02378,-0.21565 0.26542,0 0.64695,0.0498 0.39812,0.0332 0.77965,0.0995 0.39813,0.0663 0.66354,0.18247 l -0.41471,2.04038 q -0.33177,-0.0829 -0.77966,-0.16589 -0.44788,-0.0995 -0.96212,-0.0995 -0.23224,0 -0.56401,0.0498 -0.31518,0.0332 -0.48106,0.0829 v 6.66853 z m 10.00275,0.18248 q -1.12801,0 -1.97401,-0.26542 -0.84601,-0.282 -1.31049,-0.91236 -0.46447,-0.63036 -0.46447,-1.69202 0,-1.02848 0.51424,-1.62566 0.53083,-0.59718 1.37683,-0.84601 0.84601,-0.26541 1.79155,-0.26541 0.48106,0 0.84601,0.0498 0.38153,0.0332 0.61377,0.0995 v -0.23223 q 0,-0.4313 -0.16588,-0.72989 -0.16589,-0.31518 -0.54742,-0.48107 -0.36495,-0.18247 -0.9953,-0.18247 -0.63036,0 -1.24413,0.0995 -0.61378,0.0829 -1.06166,0.24883 l -0.31518,-1.99061 q 0.4313,-0.13271 1.22754,-0.26542 0.81283,-0.14929 1.67543,-0.14929 1.45978,0 2.2892,0.4313 0.82942,0.4313 1.16119,1.24413 0.34835,0.79624 0.34835,1.89107 v 5.14241 q -0.53083,0.11612 -1.47637,0.26541 -0.94553,0.16589 -2.2892,0.16589 z m 0.16589,-1.90767 q 0.36494,0 0.69671,-0.0166 0.33177,-0.0166 0.53083,-0.0498 v -1.87449 q -0.1493,-0.0332 -0.44789,-0.0664 -0.29859,-0.0332 -0.54741,-0.0332 -0.46448,0 -0.84601,0.0829 -0.38154,0.0829 -0.61377,0.29859 -0.23224,0.21565 -0.23224,0.63036 0,0.58059 0.38153,0.81283 0.39812,0.21565 1.07825,0.21565 z m 9.32266,1.89108 q -1.4266,-0.0332 -2.18966,-0.39812 -0.74648,-0.36495 -1.02848,-1.02848 -0.26542,-0.68013 -0.26542,-1.60908 v -9.60468 l 2.47167,-0.39812 v 9.50515 q 0,0.66354 0.23224,1.04507 0.24883,0.38153 1.12801,0.44789 z m 1.75838,-0.16589 v -8.72549 h 2.47168 v 8.72549 z m 1.24413,-9.95304 q -0.59718,0 -1.04507,-0.38153 -0.43129,-0.39812 -0.43129,-1.07824 0,-0.68013 0.43129,-1.06166 0.44789,-0.39812 1.04507,-0.39812 0.59719,0 1.02848,0.39812 0.44789,0.38153 0.44789,1.06166 0,0.68012 -0.44789,1.07824 -0.43129,0.38153 -1.02848,0.38153 z m 2.96932,9.95304 v -1.45977 q 0.34835,-0.59719 0.82942,-1.27731 0.49765,-0.69671 1.02848,-1.39343 0.54741,-0.69671 1.07824,-1.34366 0.53083,-0.66353 0.97872,-1.19436 h -3.7158 v -2.05696 h 6.93395 v 1.65884 q -0.29859,0.33176 -0.79624,0.89577 -0.49766,0.56401 -1.09484,1.26072 -0.58059,0.68012 -1.17778,1.4266 -0.58059,0.72989 -1.06165,1.4266 h 4.21345 v 2.05696 z m 12.82277,0.23224 q -1.57589,0 -2.60437,-0.59718 -1.0119,-0.59718 -1.50955,-1.62566 -0.49765,-1.02848 -0.49765,-2.30579 0,-1.54272 0.59718,-2.5712 0.61377,-1.04507 1.55931,-1.55931 0.96213,-0.53083 2.02379,-0.53083 1.24413,0 2.1399,0.51424 0.89577,0.49765 1.37684,1.49296 0.49765,0.9953 0.49765,2.47167 0,0.21565 -0.0166,0.48106 -0.0166,0.24883 -0.0332,0.44789 h -5.60688 q 0.083,0.76306 0.71331,1.21095 0.63036,0.44789 1.69201,0.44789 0.68013,0 1.32707,-0.11612 0.66354,-0.13271 1.07825,-0.31518 l 0.33177,2.0072 q -0.39812,0.19906 -1.27731,0.36494 -0.86259,0.18247 -1.79155,0.18247 z m -2.07355,-5.47417 h 3.26792 q -0.0166,-0.41471 -0.18247,-0.79624 -0.16589,-0.38154 -0.51424,-0.63036 -0.33177,-0.24883 -0.89578,-0.24883 -0.564,0 -0.91236,0.24883 -0.33177,0.23224 -0.51424,0.61377 -0.18247,0.38153 -0.24883,0.81283 z m 11.69482,5.45758 q -1.44319,0 -2.45508,-0.54741 -1.01189,-0.54742 -1.55931,-1.55931 -0.53083,-1.02848 -0.53083,-2.42191 0,-1.4266 0.46448,-2.45508 0.46447,-1.02848 1.32707,-1.5759 0.87918,-0.56401 2.10673,-0.56401 0.51424,0 0.91236,0.0995 0.41471,0.0995 0.82942,0.28201 v -3.94804 l 2.47167,-0.39812 v 12.59059 q -0.4313,0.13271 -1.04507,0.24883 -0.61377,0.11612 -1.27731,0.18247 -0.64694,0.0663 -1.24413,0.0663 z m 0.0166,-2.10672 q 0.33177,0 0.61377,-0.0166 0.28201,-0.0332 0.46448,-0.0663 v -4.49546 q -0.23224,-0.1493 -0.61377,-0.24883 -0.36495,-0.0995 -0.74648,-0.0995 -0.44789,0 -0.77966,0.1493 -0.31518,0.14929 -0.54741,0.44788 -0.21565,0.2986 -0.33177,0.74648 -0.0995,0.44789 -0.0995,1.04507 0,0.76307 0.23224,1.34366 0.23223,0.56401 0.68012,0.87919 0.46448,0.31518 1.12801,0.31518 z m 13.41999,2.10672 q -0.59719,0 -1.26072,-0.0663 -0.64695,-0.0663 -1.26072,-0.18247 -0.59718,-0.11612 -1.04507,-0.24883 v -12.19247 l 2.47167,-0.39812 v 4.34616 q 0.41471,-0.18248 0.8626,-0.28201 0.44789,-0.0995 0.96213,-0.0995 1.24413,0 2.09014,0.56401 0.846,0.56401 1.2773,1.59249 0.44789,1.01189 0.44789,2.38873 0,1.39342 -0.54742,2.4219 -0.53083,1.02848 -1.54272,1.59249 -1.01189,0.564 -2.45508,0.564 z m -0.0166,-2.10672 q 0.68012,0 1.12801,-0.31518 0.44789,-0.31518 0.68012,-0.87919 0.23224,-0.58059 0.23224,-1.34366 0,-0.59718 -0.11612,-1.04507 -0.0995,-0.44788 -0.33176,-0.74648 -0.21565,-0.29859 -0.54742,-0.44788 -0.31518,-0.1493 -0.76307,-0.1493 -0.38153,0 -0.76306,0.0995 -0.36495,0.0995 -0.59719,0.24883 v 4.49546 q 0.18248,0.0332 0.46448,0.0663 0.282,0.0166 0.61377,0.0166 z m 9.63783,2.07355 q -1.12801,0 -1.97402,-0.26542 -0.84601,-0.282 -1.31048,-0.91236 -0.46448,-0.63036 -0.46448,-1.69202 0,-1.02848 0.51424,-1.62566 0.53083,-0.59718 1.37684,-0.84601 0.84601,-0.26541 1.79155,-0.26541 0.48106,0 0.846,0.0498 0.38154,0.0332 0.61377,0.0995 v -0.23223 q 0,-0.4313 -0.16588,-0.72989 -0.16588,-0.31518 -0.54742,-0.48107 -0.36494,-0.18247 -0.9953,-0.18247 -0.63036,0 -1.24413,0.0995 -0.61377,0.0829 -1.06166,0.24883 l -0.31518,-1.99061 q 0.4313,-0.13271 1.22754,-0.26542 0.81284,-0.14929 1.67543,-0.14929 1.45978,0 2.2892,0.4313 0.82942,0.4313 1.16119,1.24413 0.34836,0.79624 0.34836,1.89107 v 5.14241 q -0.53083,0.11612 -1.47637,0.26541 -0.94554,0.16589 -2.2892,0.16589 z m 0.16588,-1.90767 q 0.36495,0 0.69672,-0.0166 0.33176,-0.0166 0.53082,-0.0498 v -1.87449 q -0.14929,-0.0332 -0.44788,-0.0664 -0.29859,-0.0332 -0.54742,-0.0332 -0.46447,0 -0.84601,0.0829 -0.38153,0.0829 -0.61377,0.29859 -0.23224,0.21565 -0.23224,0.63036 0,0.58059 0.38154,0.81283 0.39812,0.21565 1.07824,0.21565 z m 9.96962,1.95743 q -1.59249,0 -2.60438,-0.61377 -0.99531,-0.61377 -1.47637,-1.64225 -0.46447,-1.04507 -0.46447,-2.33896 0,-1.26072 0.53082,-2.30579 0.54742,-1.04507 1.54273,-1.65884 1.01189,-0.63036 2.4219,-0.63036 0.69671,0 1.27731,0.13271 0.58059,0.11611 1.12801,0.34835 l -0.51424,1.97402 q -0.34836,-0.13271 -0.76307,-0.23224 -0.41471,-0.0995 -0.92895,-0.0995 -1.09483,0 -1.64225,0.68013 -0.53083,0.68012 -0.53083,1.79155 0,0.77965 0.21565,1.34366 0.21565,0.54741 0.7133,0.846 0.51424,0.28201 1.34366,0.28201 0.44789,0 0.96213,-0.0829 0.51424,-0.0829 0.94554,-0.26542 l 0.34836,2.02379 q -0.4313,0.18247 -1.07825,0.31518 -0.64695,0.1327 -1.4266,0.1327 z m 4.16366,-0.23224 v -12.47447 l 2.47167,-0.39812 v 7.29889 q 0.36495,-0.39812 0.74648,-0.82942 0.38153,-0.4313 0.74648,-0.84601 0.38153,-0.43129 0.69671,-0.81283 0.33177,-0.38153 0.56401,-0.66353 h 2.93614 q -0.58059,0.66353 -1.1446,1.29389 -0.564,0.63036 -1.16119,1.26072 -0.58059,0.61377 -1.24413,1.27731 0.49766,0.44788 1.02849,1.06165 0.53082,0.61378 1.02848,1.2939 0.49765,0.68012 0.91236,1.34366 0.41471,0.64695 0.69671,1.19436 h -2.83662 q -0.34835,-0.58059 -0.82942,-1.29389 -0.48106,-0.7133 -1.02848,-1.39343 -0.54741,-0.68012 -1.11142,-1.12801 v 3.81533 z m 13.17113,0.19907 q -1.47637,0 -2.32238,-0.51424 -0.82942,-0.53083 -1.16119,-1.4432 -0.33177,-0.91236 -0.33177,-2.10672 v -4.8604 h 2.47167 v 4.56181 q 0,0.79624 0.13271,1.29389 0.13271,0.49765 0.46448,0.72989 0.33177,0.23224 0.89577,0.23224 0.26542,0 0.56401,-0.0166 0.29859,-0.0332 0.53083,-0.0663 v -6.73489 h 2.47167 v 8.4269 q -0.63036,0.18248 -1.62567,0.33177 -0.9953,0.16589 -2.09013,0.16589 z m 6.03816,2.86979 V 171.6173 q 0.44789,-0.13271 1.04507,-0.24883 0.61377,-0.11612 1.26072,-0.18247 0.66353,-0.0663 1.26071,-0.0663 1.4432,0 2.45509,0.564 1.01189,0.54742 1.54272,1.5759 0.54742,1.02848 0.54742,2.42191 0,1.34366 -0.44789,2.37214 -0.4313,1.01189 -1.27731,1.59248 -0.84601,0.56401 -2.09014,0.56401 -0.51424,0 -0.96212,-0.0995 -0.44789,-0.0995 -0.8626,-0.282 v 3.2845 z m 3.83192,-4.99311 q 0.44789,0 0.76307,-0.1493 0.33176,-0.14929 0.54741,-0.44788 0.23224,-0.29859 0.33177,-0.72989 0.11612,-0.44789 0.11612,-1.04507 0,-0.76307 -0.23224,-1.32707 -0.23224,-0.56401 -0.68012,-0.87919 -0.44789,-0.31518 -1.12801,-0.31518 -0.33177,0 -0.61377,0.0332 -0.28201,0.0166 -0.46448,0.0498 v 4.46228 q 0.23224,0.1493 0.59718,0.24883 0.38154,0.0995 0.76307,0.0995 z" />
    </g>
</svg>