<?xml version="1.0" encoding="UTF-8" standalone="no"?>
<!-- Created with Inkscape (http://www.inkscape.org/) -->

<svg
   width="435.59692mm"
   height="86.859627mm"
   viewBox="0 0 435.59693 86.859627"
   version="1.1"
   id="svg1"
   inkscape:version="1.4.2 (ebf0e940d0, 2025-05-08)"
   sodipodi:docname="failed-encryption.svg"
   xmlns:inkscape="http://www.inkscape.org/namespaces/inkscape"
   xmlns:sodipodi="http://sodipodi.sourceforge.net/DTD/sodipodi-0.dtd"
   xmlns="http://www.w3.org/2000/svg"
   xmlns:svg="http://www.w3.org/2000/svg">
  <sodipodi:namedview
     id="namedview1"
     pagecolor="#505050"
     bordercolor="#eeeeee"
     borderopacity="1"
     inkscape:showpageshadow="0"
     inkscape:pageopacity="0"
     inkscape:pagecheckerboard="0"
     inkscape:deskcolor="#505050"
     inkscape:document-units="mm"
     inkscape:zoom="0.50898197"
     inkscape:cx="576.64125"
     inkscape:cy="92.341189"
     inkscape:window-width="1920"
     inkscape:window-height="1014"
     inkscape:window-x="0"
     inkscape:window-y="0"
     inkscape:window-maximized="1"
     inkscape:current-layer="layer1" />
  <defs
     id="defs1" />
  <g
     inkscape:label="Layer 1"
     inkscape:groupmode="layer"
     id="layer1"
     transform="translate(173.71353,-103.51545)">
    <g
       id="text1"
       style="font-weight:500;font-size:44.0973px;line-height:1;font-family:Inter;-inkscape-font-specification:'Inter, Medium';text-align:center;letter-spacing:-1.32292px;text-anchor:middle;stroke-width:3.96875;stroke-linecap:square;stroke-miterlimit:0"
       aria-label="If you can read this,&#10;my encryption failed...">
      <path
         style="text-align:start;text-anchor:start"
         d="m -168.43822,105.02268 v 32.08251 h -4.90927 v -32.08251 z m 17.34522,8.00987 v 3.8542 h -5.38297 v 20.21844 h -4.73701 v -20.21844 h -4.56476 v -3.8542 h 4.56476 v -2.75609 q 0,-2.23931 0.99046,-3.74654 1.012,-1.50724 2.62689,-2.26085 1.63643,-0.75362 3.55276,-0.75362 1.42111,0 2.43311,0.23685 1.03353,0.21532 1.52876,0.40911 l -1.09812,3.83267 q -0.34451,-0.0861 -0.86128,-0.21531 -0.51677,-0.1292 -1.24885,-0.1292 -1.70102,0 -2.45463,0.83975 -0.73209,0.83974 -0.73209,2.4331 v 2.11013 z m 13.5892,32.72846 1.16272,-3.85421 0.5383,0.1292 q 1.83021,0.49523 3.10059,-0.1292 1.29192,-0.60289 1.9594,-2.92833 l 0.51677,-1.76562 -9.15105,-24.1803 h 5.12459 l 4.75854,13.67274 q 0.5383,1.59336 0.94741,3.14366 0.4091,1.55029 0.79668,3.10059 0.4091,-1.5503 0.83974,-3.10059 0.43064,-1.57183 0.99047,-3.14366 l 4.84467,-13.67274 h 5.08153 l -10.4645,27.41009 q -1.09813,2.88527 -2.9714,4.34944 -1.85174,1.4857 -4.75855,1.4857 -1.11966,0 -2.00246,-0.17226 -0.86128,-0.15072 -1.31345,-0.34451 z m 33.64487,-8.16058 q -3.38051,0 -5.92127,-1.5503 -2.51923,-1.55029 -3.9188,-4.32791 -1.39958,-2.79914 -1.39958,-6.52416 0,-3.74655 1.39958,-6.54569 1.39957,-2.82068 3.9188,-4.37097 2.54076,-1.5503 5.92127,-1.5503 3.40204,0 5.921266,1.5503 2.540762,1.55029 3.940335,4.37097 1.399572,2.79914 1.399572,6.54569 0,3.72502 -1.399572,6.52416 -1.399573,2.77762 -3.940335,4.32791 -2.519226,1.5503 -5.921266,1.5503 z m 0,-4.00493 q 2.19625,0 3.61735,-1.14119 1.44264,-1.16272 2.131661,-3.05753 0.710552,-1.91634 0.710552,-4.19872 0,-2.30391 -0.710552,-4.22025 -0.689021,-1.93787 -2.131661,-3.07906 -1.4211,-1.16272 -3.61735,-1.16272 -2.17472,0 -3.59583,1.16272 -1.4211,1.14119 -2.13165,3.07906 -0.68902,1.91634 -0.68902,4.22025 0,2.28238 0.68902,4.19872 0.71055,1.89481 2.13165,3.05753 1.42111,1.14119 3.59583,1.14119 z m 23.395683,3.81114 q -3.681953,0 -5.942801,-2.30391 -2.260848,-2.32544 -2.260848,-6.78255 v -15.28763 h 4.737015 v 14.70627 q 0,2.60536 1.356509,4.06953 1.378041,1.46417 3.725016,1.46417 2.411571,0 4.004931,-1.5503 1.593359,-1.57182 1.593359,-4.43557 v -14.2541 h 4.758547 v 24.07264 h -4.543228 l -0.02153,-4.67242 q -1.14119,2.62689 -3.035996,3.81115 -1.873274,1.16272 -4.370972,1.16272 z m 37.554193,0.19379 q -3.402038,0 -5.921269,-1.5503 -2.51923,-1.55029 -3.918803,-4.32791 -1.399572,-2.79914 -1.399572,-6.52416 0,-3.74655 1.399572,-6.54569 1.399573,-2.82068 3.918803,-4.37097 2.519231,-1.5503 5.921269,-1.5503 3.746548,0 6.459566,1.89481 2.734549,1.87327 3.617356,5.21071 l -4.500164,1.0766 q -0.495233,-1.87328 -1.937869,-3.01447 -1.421105,-1.16272 -3.617357,-1.16272 -2.174721,0 -3.617357,1.14119 -1.421104,1.14119 -2.131657,3.07906 -0.68902,1.91634 -0.68902,4.24178 0,2.30391 0.68902,4.22025 0.710553,1.89481 2.131657,3.036 1.442636,1.14119 3.617357,1.14119 2.239316,0 3.703484,-1.18426 1.464168,-1.20578 1.93787,-3.16518 l 4.478632,1.07659 q -0.882807,3.40204 -3.617357,5.33991 -2.734549,1.93787 -6.524161,1.93787 z m 21.177889,0.0431 q -2.303911,0 -4.155654,-0.83974 -1.83021,-0.86128 -2.906804,-2.4977 -1.076594,-1.63642 -1.076594,-4.00493 0,-2.04553 0.796679,-3.35898 0.79668,-1.33497 2.131657,-2.08859 1.334977,-0.77515 2.9714,-1.16272 1.657955,-0.38757 3.358974,-0.58136 3.186719,-0.36604 4.629356,-0.62443 1.442636,-0.27991 1.442636,-1.55029 v -0.12919 q 0,-2.00247 -1.184254,-3.10059 -1.162721,-1.11966 -3.423569,-1.11966 -2.368508,0 -3.725017,1.03353 -1.356508,1.03353 -1.851742,2.26085 l -4.4571,-1.16273 q 0.818212,-2.15318 2.346975,-3.46663 1.528764,-1.31344 3.488166,-1.91634 1.980933,-0.60289 4.134122,-0.60289 1.442636,0 3.07906,0.34451 1.636423,0.34451 3.079059,1.24885 1.442636,0.88281 2.346976,2.54076 0.9043389,1.65796 0.9043389,4.26332 v 15.97665 h -4.5862919 v -3.29437 h -0.23685 q -0.710553,1.4211 -2.454635,2.62689 -1.722551,1.20578 -4.650888,1.20578 z m 1.055063,-3.81114 q 1.916338,0 3.294378,-0.75362 1.378041,-0.77515 2.110125,-2.00246 0.753616,-1.22732 0.753616,-2.64843 v -3.07906 q -0.34451,0.34451 -1.4857,0.6029 -1.119658,0.23685 -2.368508,0.4091 -1.248849,0.17226 -1.980933,0.25839 -2.002465,0.27991 -3.445102,1.09812 -1.421104,0.79668 -1.421104,2.64842 0,1.72255 1.270381,2.60536 1.291913,0.86128 3.272847,0.86128 z m 20.66114567,-10.98126 v 14.2541 H -4.7519711 v -24.07264 h 4.52169592 l 0.0215319,4.62935 q 1.11965804,-2.54076 2.99293209,-3.72501 1.8948059,-1.20579 4.4355684,-1.20579 3.6819528,0 5.9212688,2.32544 2.260848,2.30392 2.260848,6.76102 v 15.28763 h -4.737015 v -14.70627 q 0,-2.60536 -1.3565089,-4.06953 -1.3565088,-1.46417 -3.7250162,-1.46417 -2.4115712,0 -4.0049307,1.57183 -1.59335953,1.5503 -1.59335953,4.41404 z m 30.90083333,14.2541 v -24.07264 h 4.586291 v 3.87574 h 0.258383 q 0.645957,-1.95941 2.303912,-3.07906 1.679487,-1.14119 3.789612,-1.14119 0.452169,0 1.03353,0.0431 0.602893,0.0431 0.968935,0.0861 v 4.52169 q -0.258383,-0.0646 -0.990467,-0.15072 -0.732084,-0.10766 -1.4857,-0.10766 -2.476167,0 -4.11259,1.52876 -1.614891,1.50724 -1.614891,3.87574 v 14.62015 z m 25.268963,0.49524 q -3.552761,0 -6.136587,-1.52877 -2.583827,-1.52876 -3.983399,-4.30637 -1.378041,-2.77762 -1.378041,-6.52416 0,-3.70349 1.356509,-6.52417 1.378041,-2.82067 3.875739,-4.3925 2.497699,-1.59336 5.856673,-1.59336 2.73455,0 5.189185,1.22732 2.476166,1.20578 4.00493,3.87574 1.550296,2.64842 1.550296,6.99786 v 1.67949 H 49.41536 q 0.129191,3.48816 1.980933,5.3399 1.851743,1.83021 4.801611,1.83021 1.980933,0 3.402038,-0.86127 1.442636,-0.86128 2.067061,-2.54076 l 4.4571,1.05506 q -0.861275,2.82068 -3.488165,4.54323 -2.62689,1.72255 -6.481098,1.72255 z m -6.717948,-14.62015 h 12.359302 q -0.258383,-2.84221 -1.787146,-4.58629 -1.507232,-1.74409 -4.241782,-1.74409 -2.842209,0 -4.500164,1.87328 -1.636423,1.85174 -1.83021,4.4571 z m 28.089634,14.66321 q -2.303912,0 -4.155654,-0.83974 -1.83021,-0.86128 -2.906805,-2.4977 -1.076594,-1.63642 -1.076594,-4.00493 0,-2.04553 0.79668,-3.35898 0.79668,-1.33497 2.131656,-2.08859 1.334977,-0.77515 2.971401,-1.16272 1.657955,-0.38757 3.358974,-0.58136 3.186719,-0.36604 4.629355,-0.62443 1.442637,-0.27991 1.442637,-1.55029 v -0.12919 q 0,-2.00247 -1.184254,-3.10059 -1.162722,-1.11966 -3.42357,-1.11966 -2.368507,0 -3.725016,1.03353 -1.356509,1.03353 -1.851742,2.26085 l -4.457101,-1.16273 q 0.818212,-2.15318 2.346976,-3.46663 1.528764,-1.31344 3.488165,-1.91634 1.980934,-0.60289 4.134122,-0.60289 1.442637,0 3.07906,0.34451 1.636423,0.34451 3.07906,1.24885 1.442636,0.88281 2.346975,2.54076 0.904339,1.65796 0.904339,4.26332 v 15.97665 h -4.586291 v -3.29437 h -0.236851 q -0.710552,1.4211 -2.454635,2.62689 -1.722551,1.20578 -4.650887,1.20578 z m 1.055062,-3.81114 q 1.916338,0 3.294379,-0.75362 1.37804,-0.77515 2.110124,-2.00246 0.753616,-1.22732 0.753616,-2.64843 v -3.07906 q -0.34451,0.34451 -1.4857,0.6029 -1.119658,0.23685 -2.368507,0.4091 -1.248849,0.17226 -1.980934,0.25839 -2.002465,0.27991 -3.445101,1.09812 -1.421105,0.79668 -1.421105,2.64842 0,1.72255 1.270382,2.60536 1.291913,0.86128 3.272846,0.86128 z m 24.881382,3.74655 q -2.92834,0 -5.210718,-1.4857 -2.260848,-1.4857 -3.574293,-4.28485 -1.291913,-2.79914 -1.291913,-6.67488 0,-3.91881 1.313445,-6.69642 1.313445,-2.77761 3.574293,-4.24178 2.282376,-1.46417 5.189186,-1.46417 2.23931,0 3.61736,0.75362 1.37804,0.73208 2.13165,1.74408 0.77515,0.99047 1.18426,1.72255 h 0.25838 v -11.92867 h 4.73701 v 32.08251 h -4.60782 v -3.76808 h -0.38757 q -0.43064,0.77515 -1.22732,1.76562 -0.77515,0.99047 -2.15319,1.74408 -1.37804,0.73209 -3.55276,0.73209 z m 1.03353,-4.02647 q 3.01446,0 4.62935,-2.34697 1.6149,-2.34698 1.6149,-6.11506 0,-3.74655 -1.59336,-6.02893 -1.59336,-2.30391 -4.65089,-2.30391 -2.08859,0 -3.48817,1.09813 -1.378037,1.09812 -2.088589,2.99293 -0.689021,1.87327 -0.689021,4.24178 0,2.39004 0.710552,4.30638 0.710553,1.91634 2.110128,3.03599 1.39957,1.11966 3.4451,1.11966 z m 36.67138,-20.51988 v 3.8542 h -4.80161 v 13.71581 q 0,1.44264 0.60289,2.13166 0.62443,0.66749 2.024,0.66749 0.38757,0 0.96893,-0.0861 0.6029,-0.0861 1.03353,-0.17225 l 0.83975,3.78961 q -0.75362,0.25838 -1.63643,0.36604 -0.86127,0.12919 -1.67948,0.12919 -3.27285,0 -5.08153,-1.67948 -1.80868,-1.70102 -1.80868,-4.75855 v -14.10339 h -3.50969 v -3.8542 h 3.50969 v -5.72749 h 4.73702 v 5.72749 z m 8.17265,9.81854 v 14.2541 h -4.73702 v -32.08251 h 4.69395 v 12.33778 q 1.14119,-2.39004 2.9714,-3.5097 1.83021,-1.11966 4.30638,-1.11966 3.68195,0 5.9428,2.32544 2.26085,2.30392 2.26085,6.76102 v 15.28763 h -4.75855 v -14.70627 q 0,-2.60536 -1.35651,-4.06953 -1.3565,-1.46417 -3.72501,-1.46417 -2.41157,0 -4.00493,1.57183 -1.59336,1.5503 -1.59336,4.41404 z m 20.46733,14.2541 v -24.07264 h 4.73701 v 24.07264 z m 2.39004,-27.7546 q -1.22732,0 -2.11013,-0.81821 -0.86127,-0.81821 -0.86127,-1.98093 0,-1.18426 0.86127,-2.00247 0.88281,-0.81821 2.11013,-0.81821 1.22732,0 2.11012,0.81821 0.88281,0.81821 0.88281,2.00247 0,1.16272 -0.88281,1.98093 -0.8828,0.81821 -2.11012,0.81821 z m 16.03178,28.24984 q -3.9188,0 -6.50263,-1.67949 -2.56229,-1.70102 -3.20825,-4.90927 l 4.4571,-0.92587 q 0.96894,3.68195 5.29685,3.68195 2.30391,0 3.63888,-0.9474 1.35651,-0.96894 1.35651,-2.30391 0,-2.28238 -3.3805,-3.036 l -4.048,-0.92587 q -6.63182,-1.4857 -6.63182,-6.65335 0,-2.15319 1.18425,-3.76808 1.20579,-1.61489 3.29438,-2.4977 2.11013,-0.90434 4.84468,-0.90434 3.89727,0 6.11505,1.67949 2.21779,1.65795 2.99294,4.32791 l -4.24179,0.92587 q -0.45217,-1.27038 -1.57182,-2.21779 -1.11966,-0.96893 -3.25132,-0.96893 -1.9594,0 -3.27285,0.88281 -1.31344,0.8828 -1.31344,2.23931 0,1.20579 0.86128,1.9594 0.8828,0.73209 2.86374,1.18426 l 3.87574,0.86127 q 6.56722,1.4857 6.56722,6.50263 0,2.19625 -1.27038,3.89727 -1.24885,1.67949 -3.48817,2.64842 -2.23931,0.94741 -5.16765,0.94741 z m 13.29724,7.49309 1.89481,-12.59615 h 5.10305 l -3.55276,12.59615 z"
         id="path2" />
      <path
         style="text-align:start;text-anchor:start"
         d="m -173.71353,181.2025 v -24.07265 h 4.50016 l 0.10766,4.50016 q 0.92587,-2.4977 2.77761,-3.70348 1.85174,-1.20579 4.00493,-1.20579 2.34698,0 3.89727,1.33498 1.5503,1.33498 2.26085,3.72501 0.90434,-2.4331 2.9714,-3.74654 2.0886,-1.31345 4.65089,-1.31345 2.13166,0 3.85421,0.92587 1.72255,0.92587 2.73455,2.75608 1.03353,1.83021 1.03353,4.56476 v 16.23505 h -4.73702 v -15.76134 q 0,-2.41158 -1.35651,-3.48817 -1.33497,-1.07659 -3.16518,-1.07659 -2.23932,0 -3.53123,1.37804 -1.27038,1.37804 -1.27038,3.53123 v 15.41683 h -4.67242 v -16.06279 q 0,-1.93787 -1.24885,-3.10059 -1.22732,-1.16272 -3.14366,-1.16272 -1.98093,0 -3.46663,1.37804 -1.46417,1.35651 -1.46417,3.9834 v 14.96466 z m 36.83157,8.65581 1.16273,-3.8542 0.53829,0.12919 q 1.83021,0.49523 3.10059,-0.12919 1.29192,-0.6029 1.95941,-2.92834 l 0.51676,-1.76561 -9.15105,-24.18031 h 5.12459 l 4.75855,13.67274 q 0.53829,1.59336 0.9474,3.14366 0.4091,1.5503 0.79668,3.10059 0.4091,-1.55029 0.83974,-3.10059 0.43064,-1.57183 0.99047,-3.14366 l 4.84467,-13.67274 h 5.08153 l -10.4645,27.41009 q -1.09813,2.88527 -2.9714,4.34944 -1.85174,1.4857 -4.75855,1.4857 -1.11965,0 -2.00246,-0.17226 -0.86128,-0.15072 -1.31345,-0.34451 z m 45.176487,-8.16058 q -3.552761,0 -6.136588,-1.52876 -2.583829,-1.52877 -3.983399,-4.30638 -1.37804,-2.77762 -1.37804,-6.52416 0,-3.70349 1.35651,-6.52416 1.37804,-2.82068 3.875738,-4.39251 2.497699,-1.59336 5.856673,-1.59336 2.734549,0 5.189184,1.22732 2.476167,1.20578 4.004931,3.87574 1.550296,2.64842 1.550296,6.99786 v 1.67949 h -17.074786 q 0.129192,3.48816 1.980934,5.33991 1.851742,1.83021 4.80161,1.83021 1.980934,0 3.402038,-0.86128 1.442637,-0.86128 2.067061,-2.54076 l 4.457101,1.05506 q -0.861276,2.82068 -3.488166,4.54323 -2.62689,1.72255 -6.481097,1.72255 z m -6.717949,-14.62015 h 12.359303 q -0.258383,-2.84221 -1.787147,-4.58629 -1.507232,-1.74409 -4.241781,-1.74409 -2.842209,0 -4.500164,1.87328 -1.636424,1.85174 -1.830211,4.4571 z m 25.656528,-0.12919 v 14.25411 h -4.737015 v -24.07265 h 4.521696 l 0.02153,4.62935 q 1.119658,-2.54076 2.992932,-3.72501 1.894806,-1.20579 4.435568,-1.20579 3.681953,0 5.921269,2.32544 2.260848,2.30392 2.260848,6.76102 v 15.28764 h -4.737015 v -14.70628 q 0,-2.60536 -1.356509,-4.06953 -1.356509,-1.46417 -3.725016,-1.46417 -2.411571,0 -4.004931,1.57183 -1.593359,1.5503 -1.593359,4.41404 z m 30.58734,14.74934 q -3.402038,0 -5.921269,-1.5503 -2.51923,-1.55029 -3.918803,-4.32791 -1.399572,-2.79914 -1.399572,-6.52416 0,-3.74655 1.399572,-6.54569 1.399573,-2.82068 3.918803,-4.37097 2.519231,-1.5503 5.921269,-1.5503 3.746548,0 6.459565,1.89481 2.73455,1.87327 3.617357,5.21071 l -4.500164,1.0766 q -0.495233,-1.87328 -1.93787,-3.01447 -1.421104,-1.16272 -3.617356,-1.16272 -2.174721,0 -3.617357,1.14119 -1.421105,1.14119 -2.131657,3.07906 -0.68902,1.91634 -0.68902,4.24178 0,2.30391 0.68902,4.22025 0.710552,1.89481 2.131657,3.036 1.442636,1.14119 3.617357,1.14119 2.239316,0 3.703484,-1.18426 1.464168,-1.20578 1.93787,-3.16518 l 4.478632,1.07659 q -0.882807,3.40204 -3.617357,5.33991 -2.734549,1.93787 -6.524161,1.93787 z m 14.007783,-0.49523 v -24.07265 h 4.586292 v 3.87574 h 0.258382 q 0.645957,-1.9594 2.303912,-3.07906 1.679487,-1.14119 3.789612,-1.14119 0.452169,0 1.03353,0.0431 0.602893,0.0431 0.968935,0.0861 v 4.52169 q -0.258382,-0.0646 -0.990466,-0.15072 -0.732085,-0.10766 -1.485701,-0.10766 -2.476166,0 -4.11259,1.52877 -1.614891,1.50723 -1.614891,3.87574 v 14.62015 z m 16.096379,8.65581 1.162722,-3.8542 0.538297,0.12919 q 1.8302103,0.49523 3.1005915,-0.12919 1.2919132,-0.6029 1.9594016,-2.92834 l 0.5167653,-1.76561 -9.1510514,-24.18031 h 5.1245888 l 4.7585467,13.67274 q 0.5382971,1.59336 0.9474029,3.14366 0.4091059,1.5503 0.7966798,3.10059 0.4091058,-1.55029 0.8397435,-3.10059 0.4306378,-1.57183 0.99046677,-3.14366 L 4.3534367,157.12985 h 5.081525 l -10.4644964,27.41009 q -1.0981261,2.88527 -2.9714002,4.34944 -1.8517421,1.4857 -4.7585467,1.4857 -1.119658,0 -2.0024654,-0.17226 -0.861275,-0.15072 -1.313445,-0.34451 z m 24.364604,0.34451 v -33.07297 h 4.607824 v 3.9188 h 0.387574 q 0.409106,-0.73208 1.162722,-1.72255 0.775147,-1.012 2.153188,-1.74408 1.378041,-0.75362 3.638889,-0.75362 2.885272,0 5.14612,1.46417 2.28238,1.46417 3.595825,4.24178 1.313445,2.77761 1.313445,6.69642 0,3.87574 -1.291913,6.67488 -1.291913,2.79915 -3.574293,4.28485 -2.260848,1.4857 -5.189184,1.4857 -2.196253,0 -3.574293,-0.73209 -1.378041,-0.75361 -2.174721,-1.74408 -0.775148,-0.99047 -1.205785,-1.76561 h -0.258383 v 12.7684 z m 10.895134,-12.55309 q 2.067061,0 3.445102,-1.11965 1.399573,-1.11966 2.110125,-3.036 0.710552,-1.91634 0.710552,-4.30638 0,-2.3685 -0.710552,-4.24178 -0.68902,-1.8948 -2.088593,-2.99293 -1.378041,-1.09813 -3.466634,-1.09813 -3.057527,0 -4.650887,2.30392 -1.593359,2.28238 -1.593359,6.02892 0,3.76808 1.614891,6.11506 1.614891,2.34697 4.629355,2.34697 z m 25.333555,-20.51988 v 3.85421 H 43.71629 v 13.71581 q 0,1.44263 0.602893,2.13165 0.624425,0.66749 2.023997,0.66749 0.387574,0 0.968935,-0.0861 0.602893,-0.0861 1.033531,-0.17225 l 0.839743,3.78961 q -0.753616,0.25838 -1.636423,0.36604 -0.861276,0.12919 -1.679487,0.12919 -3.272847,0 -5.081525,-1.67948 -1.808679,-1.70102 -1.808679,-4.75855 v -14.10338 h -3.509697 v -3.85421 h 3.509697 v -5.72748 h 4.737015 v 5.72748 z m 3.392573,24.07265 v -24.07265 h 4.737015 v 24.07265 z m 2.390039,-27.7546 q -1.227317,0 -2.110125,-0.81822 -0.861275,-0.81821 -0.861275,-1.98093 0,-1.18425 0.861275,-2.00247 0.882808,-0.81821 2.110125,-0.81821 1.227318,0 2.110125,0.81821 0.882807,0.81822 0.882807,2.00247 0,1.16272 -0.882807,1.98093 -0.882807,0.81822 -2.110125,0.81822 z m 17.517484,28.24983 q -3.380506,0 -5.921269,-1.5503 -2.51923,-1.55029 -3.918803,-4.32791 -1.399572,-2.79914 -1.399572,-6.52416 0,-3.74655 1.399572,-6.54569 1.399573,-2.82068 3.918803,-4.37097 2.540763,-1.5503 5.921269,-1.5503 3.402038,0 5.921268,1.5503 2.540763,1.55029 3.940335,4.37097 1.399573,2.79914 1.399573,6.54569 0,3.72502 -1.399573,6.52416 -1.399572,2.77762 -3.940335,4.32791 -2.51923,1.5503 -5.921268,1.5503 z m 0,-4.00493 q 2.196252,0 3.617356,-1.14119 1.442637,-1.16272 2.131657,-3.05753 0.710552,-1.91634 0.710552,-4.19872 0,-2.30391 -0.710552,-4.22025 -0.68902,-1.93787 -2.131657,-3.07906 -1.421104,-1.16272 -3.617356,-1.16272 -2.174721,0 -3.595825,1.16272 -1.421105,1.14119 -2.131657,3.07906 -0.68902,1.91634 -0.68902,4.22025 0,2.28238 0.68902,4.19872 0.710552,1.89481 2.131657,3.05753 1.421104,1.14119 3.595825,1.14119 z m 19.929055,-10.74441 v 14.25411 h -4.737014 v -24.07265 h 4.521695 l 0.02153,4.62935 q 1.119658,-2.54076 2.992932,-3.72501 1.894806,-1.20579 4.435569,-1.20579 3.681954,0 5.921264,2.32544 2.26085,2.30392 2.26085,6.76102 v 15.28764 h -4.73701 v -14.70628 q 0,-2.60536 -1.35651,-4.06953 -1.35651,-1.46417 -3.725017,-1.46417 -2.411572,0 -4.004931,1.57183 -1.59336,1.5503 -1.59336,4.41404 z m 42.829498,-9.81854 v 3.85421 h -5.38297 v 20.21844 h -4.73702 v -20.21844 h -4.56476 v -3.85421 h 4.56476 v -2.75608 q 0,-2.23932 0.99047,-3.74655 1.012,-1.50723 2.62689,-2.26085 1.63642,-0.75362 3.55276,-0.75362 1.42111,0 2.4331,0.23685 1.03354,0.21532 1.52877,0.40911 l -1.09813,3.83268 q -0.34451,-0.0861 -0.86127,-0.21532 -0.51677,-0.12919 -1.24885,-0.12919 -1.70102,0 -2.45464,0.83974 -0.73208,0.83974 -0.73208,2.4331 v 2.11013 z m 9.46456,24.61094 q -2.30391,0 -4.15565,-0.83974 -1.83021,-0.86128 -2.90681,-2.4977 -1.07659,-1.63642 -1.07659,-4.00493 0,-2.04553 0.79668,-3.35897 0.79668,-1.33498 2.13166,-2.0886 1.33497,-0.77515 2.9714,-1.16272 1.65795,-0.38757 3.35897,-0.58136 3.18672,-0.36604 4.62936,-0.62442 1.44263,-0.27992 1.44263,-1.5503 v -0.12919 q 0,-2.00247 -1.18425,-3.10059 -1.16272,-1.11966 -3.42357,-1.11966 -2.36851,0 -3.72502,1.03353 -1.35651,1.03353 -1.85174,2.26085 l -4.4571,-1.16272 q 0.81821,-2.15319 2.34698,-3.46664 1.52876,-1.31344 3.48816,-1.91634 1.98094,-0.60289 4.13412,-0.60289 1.44264,0 3.07906,0.34451 1.63643,0.34451 3.07906,1.24885 1.44264,0.88281 2.34698,2.54076 0.90434,1.65796 0.90434,4.26332 v 15.97666 h -4.58629 v -3.29438 h -0.23685 q -0.71056,1.4211 -2.45464,2.62689 -1.72255,1.20578 -4.65089,1.20578 z m 1.05507,-3.81114 q 1.91633,0 3.29437,-0.75362 1.37804,-0.77514 2.11013,-2.00246 0.75361,-1.22732 0.75361,-2.64842 v -3.07906 q -0.34451,0.34451 -1.4857,0.60289 -1.11965,0.23685 -2.3685,0.4091 -1.24885,0.17226 -1.98094,0.25839 -2.00246,0.27991 -3.4451,1.09812 -1.4211,0.79668 -1.4211,2.64843 0,1.72255 1.27038,2.60535 1.29191,0.86128 3.27285,0.86128 z m 15.92411,3.27285 v -24.07265 h 4.73702 v 24.07265 z m 2.39004,-27.7546 q -1.22732,0 -2.11012,-0.81822 -0.86128,-0.81821 -0.86128,-1.98093 0,-1.18425 0.86128,-2.00247 0.8828,-0.81821 2.11012,-0.81821 1.22732,0 2.11013,0.81821 0.8828,0.81822 0.8828,2.00247 0,1.16272 -0.8828,1.98093 -0.88281,0.81822 -2.11013,0.81822 z m 12.13448,-4.32791 v 32.08251 h -4.73701 v -32.08251 z m 15.42889,32.57774 q -3.55276,0 -6.13658,-1.52876 -2.58383,-1.52877 -3.9834,-4.30638 -1.37804,-2.77762 -1.37804,-6.52416 0,-3.70349 1.3565,-6.52416 1.37805,-2.82068 3.87574,-4.39251 2.4977,-1.59336 5.85668,-1.59336 2.73455,0 5.18918,1.22732 2.47617,1.20578 4.00493,3.87574 1.5503,2.64842 1.5503,6.99786 v 1.67949 h -17.07479 q 0.12919,3.48816 1.98094,5.33991 1.85174,1.83021 4.80161,1.83021 1.98093,0 3.40203,-0.86128 1.44264,-0.86128 2.06707,-2.54076 l 4.4571,1.05506 q -0.86128,2.82068 -3.48817,4.54323 -2.62689,1.72255 -6.4811,1.72255 z m -6.71795,-14.62015 h 12.35931 q -0.25839,-2.84221 -1.78715,-4.58629 -1.50723,-1.74409 -4.24178,-1.74409 -2.84221,0 -4.50017,1.87328 -1.63642,1.85174 -1.83021,4.4571 z m 29.8768,14.59862 q -2.92833,0 -5.21071,-1.4857 -2.26085,-1.4857 -3.57429,-4.28485 -1.29192,-2.79914 -1.29192,-6.67488 0,-3.91881 1.31345,-6.69642 1.31344,-2.77761 3.57429,-4.24178 2.28238,-1.46417 5.18918,-1.46417 2.23932,0 3.61736,0.75362 1.37804,0.73208 2.13166,1.74408 0.77515,0.99047 1.18425,1.72255 h 0.25838 v -11.92866 h 4.73702 v 32.08251 h -4.60782 v -3.76808 h -0.38758 q -0.43064,0.77514 -1.22732,1.76561 -0.77514,0.99047 -2.15318,1.74408 -1.37804,0.73209 -3.55277,0.73209 z m 1.03354,-4.02647 q 3.01446,0 4.62935,-2.34697 1.61489,-2.34698 1.61489,-6.11506 0,-3.74654 -1.59336,-6.02892 -1.59336,-2.30392 -4.65088,-2.30392 -2.0886,0 -3.48817,1.09813 -1.37804,1.09813 -2.08859,2.99293 -0.68902,1.87328 -0.68902,4.24178 0,2.39004 0.71055,4.30638 0.71055,1.91634 2.11012,3.036 1.39958,1.11965 3.44511,1.11965 z m 19.45533,3.87574 q -1.33498,0 -2.26085,-0.90434 -0.92587,-0.92587 -0.92587,-2.26084 0,-1.33498 0.92587,-2.26085 0.92587,-0.92587 2.26085,-0.92587 1.33498,0 2.23932,0.92587 0.92587,0.92587 0.92587,2.26085 0,1.33497 -0.92587,2.26084 -0.90434,0.90434 -2.23932,0.90434 z m 12.0484,0 q -1.33498,0 -2.26085,-0.90434 -0.92587,-0.92587 -0.92587,-2.26084 0,-1.33498 0.92587,-2.26085 0.92587,-0.92587 2.26085,-0.92587 1.33498,0 2.23932,0.92587 0.92587,0.92587 0.92587,2.26085 0,1.33497 -0.92587,2.26084 -0.90434,0.90434 -2.23932,0.90434 z m 12.04837,0 q -1.33498,0 -2.26085,-0.90434 -0.92587,-0.92587 -0.92587,-2.26084 0,-1.33498 0.92587,-2.26085 0.92587,-0.92587 2.26085,-0.92587 1.33498,0 2.23932,0.92587 0.92587,0.92587 0.92587,2.26085 0,1.33497 -0.92587,2.26084 -0.90434,0.90434 -2.23932,0.90434 z"
         id="path3" />
    </g>
  </g>
</svg>
