<?xml version="1.0" encoding="UTF-8" standalone="no"?>
<svg width="110.32677mm" height="55.135269mm" viewBox="0 0 110.32677 55.135269" version="1.1" id="svg1"
    xmlns="http://www.w3.org/2000/svg" xmlns:svg="http://www.w3.org/2000/svg">
    <g transform="translate(-49.71041,-109.87485)">
        <g>
            <path
                d="m 61.920562,130.96998 -12.210106,-5.75074 v -3.40684 l 12.210106,-5.75074 v 3.13429 l -7.903863,3.65213 q -0.545094,0.24529 -1.090188,0.43608 -0.517839,0.16353 -0.817641,0.21804 0.299802,0.0545 0.844896,0.21803 0.545094,0.16353 1.062933,0.40882 l 7.903863,3.65213 z m 3.706597,4.52428 9.539144,-25.61941 h 3.543111 l -9.539144,25.61941 z m 16.816107,-2.99801 v -19.89593 h 3.406837 v 4.90584 l -0.08176,2.77998 q 0.272547,-1.41724 1.335481,-2.23488 1.062933,-0.81765 2.698215,-0.81765 2.207631,0 3.515856,1.47176 1.33548,1.47175 1.33548,3.95193 v 9.83895 h -3.406837 v -9.43013 q 0,-1.38999 -0.735877,-2.12587 -0.708622,-0.76313 -1.935084,-0.76313 -1.28097,0 -2.016847,0.76313 -0.708623,0.76314 -0.708623,2.18038 v 9.37562 z m 22.457834,0.27254 q -1.90783,0 -3.32508,-0.73587 -1.41724,-0.73588 -2.207626,-2.07136 -0.763132,-1.36274 -0.763132,-3.1888 v -3.54311 q 0,-1.82607 0.763132,-3.16155 0.790386,-1.36273 2.207626,-2.09861 1.41725,-0.73588 3.32508,-0.73588 1.88057,0 3.27056,0.73588 1.41725,0.73588 2.18038,2.07136 0.79038,1.30822 0.79038,3.07978 v 2.72547 h -9.26659 v 1.03568 q 0,1.52626 0.79038,2.31665 0.79039,0.76313 2.23489,0.76313 1.06293,0 1.79881,-0.35431 0.76313,-0.38157 0.8994,-1.09019 h 3.37959 q -0.35431,1.93508 -2.01685,3.10704 -1.66254,1.14469 -4.06095,1.14469 z m -3.02527,-9.64816 v 0.51784 l 5.99603,-0.0273 v -0.51784 q 0,-1.55351 -0.76313,-2.39841 -0.76313,-0.84489 -2.20763,-0.84489 -1.49901,0 -2.26214,0.87215 -0.76313,0.84489 -0.76313,2.39841 z m 17.68825,9.64816 q -2.28939,0 -3.62487,-1.28097 -1.30823,-1.30822 -1.30823,-3.40684 0,-2.18037 1.49901,-3.46134 1.49901,-1.30823 4.11546,-1.30823 h 3.65213 v -1.06293 q 0,-2.26214 -2.64371,-2.26214 -1.1992,0 -1.90783,0.46333 -0.70862,0.46333 -0.79038,1.30822 h -3.27057 q 0.10902,-2.01684 1.6898,-3.27056 1.60802,-1.25372 4.30624,-1.25372 2.86174,0 4.44251,1.33548 1.58078,1.33549 1.58078,3.76115 v 10.16601 h -3.32508 v -2.80724 q -0.19078,1.4445 -1.36273,2.26214 -1.17195,0.81764 -3.05253,0.81764 z m 1.09019,-2.77998 q 1.49901,0 2.37116,-0.73587 0.87215,-0.73588 0.87215,-1.96234 v -1.77156 h -3.4886 q -1.11744,0 -1.77156,0.62686 -0.65411,0.62686 -0.65411,1.60803 0,1.00842 0.68137,1.63528 0.70862,0.5996 1.98959,0.5996 z m 15.56239,2.77998 q -2.18038,0 -3.54311,-1.55351 -1.33548,-1.55352 -1.33548,-4.16997 v -4.06095 q 0,-2.64371 1.33548,-4.19723 1.33548,-1.55352 3.54311,-1.55352 1.55352,0 2.61645,0.79039 1.09019,0.79039 1.52626,2.20763 l -0.10901,-3.43409 v -4.19722 h 3.40683 v 19.89593 h -3.32507 v -2.72547 q -0.40882,1.41724 -1.47175,2.20763 -1.06294,0.79038 -2.64371,0.79038 z m 1.28097,-2.9435 q 1.30823,0 2.01685,-0.79039 0.73588,-0.79039 0.73588,-2.23489 v -3.59762 q 0,-1.4445 -0.73588,-2.23488 -0.70862,-0.79039 -2.01685,-0.79039 -1.30823,0 -2.0441,0.70862 -0.70862,0.70863 -0.70862,2.18038 v 3.87017 q 0,1.47175 0.70862,2.18037 0.73587,0.70863 2.0441,0.70863 z m 10.32949,1.14469 v -3.13429 l 7.90387,-3.65213 q 0.54509,-0.24529 1.06293,-0.40882 0.5451,-0.16353 0.8449,-0.24529 -0.2998,-0.0545 -0.8449,-0.21804 -0.54509,-0.16353 -1.06293,-0.38156 l -7.90387,-3.67939 v -3.1888 l 12.21011,5.75074 v 3.40684 z" />
            <path
                d="m 61.920562,158.57795 -12.210106,-5.75074 v -3.40684 l 12.210106,-5.75074 v 3.13429 l -7.903863,3.65213 q -0.545094,0.24529 -1.090188,0.43607 -0.517839,0.16353 -0.817641,0.21804 0.299802,0.0545 0.844896,0.21804 0.545094,0.16353 1.062933,0.40882 l 7.903863,3.65213 z m 11.610459,1.79881 q -1.580772,0 -2.643705,-0.79039 -1.062934,-0.79038 -1.471754,-2.20763 v 2.72547 h -3.325074 v -19.89593 h 3.406838 v 4.19722 l -0.109019,3.4341 q 0.436075,-1.41725 1.499009,-2.20763 1.090188,-0.79039 2.643705,-0.79039 2.207631,0 3.543111,1.55352 1.335481,1.55352 1.335481,4.19722 v 4.06095 q 0,2.61645 -1.362735,4.16997 -1.335481,1.55352 -3.515857,1.55352 z m -1.28097,-2.94351 q 1.308225,0 2.016847,-0.70862 0.735877,-0.70862 0.735877,-2.18038 v -3.87016 q 0,-1.47176 -0.735877,-2.18038 -0.708622,-0.70862 -2.016847,-0.70862 -1.308226,0 -2.044103,0.79038 -0.708622,0.79039 -0.708622,2.23489 v 3.59762 q 0,1.4445 0.708622,2.23488 0.735877,0.79039 2.044103,0.79039 z m 16.271013,2.91625 q -2.888998,0 -4.57879,-1.60802 -1.689791,-1.63529 -1.689791,-4.38801 v -3.4886 q 0,-2.77998 1.689791,-4.38801 1.689792,-1.60803 4.57879,-1.60803 2.888998,0 4.57879,1.60803 1.689791,1.60803 1.689791,4.38801 v 3.4886 q 0,2.75272 -1.689791,4.38801 -1.689792,1.60802 -4.57879,1.60802 z m 0,-2.97076 q 1.362735,0 2.098612,-0.73588 0.763131,-0.76313 0.763131,-2.18037 v -3.70664 q 0,-1.41724 -0.763131,-2.15312 -0.735877,-0.76313 -2.098612,-0.76313 -1.362735,0 -2.125867,0.76313 -0.735876,0.73588 -0.735876,2.15312 v 3.70664 q 0,1.41724 0.735876,2.18037 0.763132,0.73588 2.125867,0.73588 z m 14.990046,2.99802 q -2.18038,0 -3.543113,-1.55352 -1.33548,-1.55352 -1.33548,-4.16997 v -4.06095 q 0,-2.6437 1.33548,-4.19722 1.335483,-1.55352 3.543113,-1.55352 1.55352,0 2.61645,0.79039 1.09019,0.79038 1.52626,2.20763 l -0.10902,-3.4341 v -4.19722 h 3.40684 v 19.89593 h -3.32507 v -2.72547 q -0.40882,1.41725 -1.47176,2.20763 -1.06293,0.79039 -2.6437,0.79039 z m 1.28097,-2.94351 q 1.30822,0 2.01685,-0.79039 0.73587,-0.79038 0.73587,-2.23488 v -3.59762 q 0,-1.4445 -0.73587,-2.23489 -0.70863,-0.79038 -2.01685,-0.79038 -1.30823,0 -2.0441,0.70862 -0.70863,0.70862 -0.70863,2.18038 v 3.87016 q 0,1.47176 0.70863,2.18038 0.73587,0.70862 2.0441,0.70862 z m 12.75515,7.57681 2.12587,-5.72349 -5.64172,-14.17244 h 3.59762 l 2.889,7.65857 q 0.24529,0.68137 0.49058,1.49901 0.24529,0.79038 0.35431,1.47175 0.0818,-0.68137 0.2998,-1.47175 0.2453,-0.81764 0.49059,-1.49901 l 2.67096,-7.65857 h 3.59762 l -7.30426,19.89593 z m 13.92711,-6.43211 v -3.13429 l 7.90386,-3.65213 q 0.5451,-0.24529 1.06294,-0.40882 0.54509,-0.16353 0.84489,-0.24529 -0.2998,-0.0545 -0.84489,-0.21804 -0.5451,-0.16353 -1.06294,-0.38157 l -7.90386,-3.67938 v -3.1888 l 12.21011,5.75074 v 3.40684 z" />
        </g>
    </g>
</svg>