<?xml version="1.0" encoding="UTF-8" standalone="no"?>
<svg width="140.69908mm" height="27.148235mm" viewBox="0 0 140.69908 27.148235" version="1.1"
    xmlns="http://www.w3.org/2000/svg" xmlns:svg="http://www.w3.org/2000/svg">
    <g transform="translate(-35.549753,-128.85126)">
        <path
            d="M 35.549734,153.71053 V 134.82302 H 37.6756 v 18.88751 z m 24.76613,-24.85927 13.574118,13.57412 -13.574118,13.57411 -13.574118,-13.57411 z m -1.357412,21.47904 v 3.38023 h 2.701516 v -3.38023 z m 2.621668,-1.95627 v -1.63687 q 0,-0.69202 0.03992,-1.09126 0.03992,-0.39924 0.119772,-0.6787 0.106463,-0.3327 0.359315,-0.67871 0.306083,-0.41255 0.891633,-0.98479 l 1.1711,-1.14448 q 1.224332,-1.19772 1.676803,-2.04943 0.479087,-0.91825 0.479087,-1.92965 0,-2.11597 -1.490492,-3.40684 -1.477183,-1.29087 -3.925848,-1.29087 -1.370719,0 -2.661591,0.37262 -1.277564,0.37262 -2.528513,1.13118 v 2.50189 q 1.290872,-0.89163 2.475281,-1.35741 1.197716,-0.46578 2.249045,-0.46578 1.437259,0 2.302277,0.73194 0.878325,0.73194 0.878325,1.91635 0,0.65209 -0.346007,1.27756 -0.332699,0.62548 -1.091253,1.3308 l -1.197716,1.18441 q -1.197716,1.14448 -1.570339,2.0095 -0.372623,0.86501 -0.372623,2.20912 v 2.04942 z m 26.745223,5.60904 q -2.125867,0 -3.379583,-0.79038 -1.226462,-0.81764 -1.771556,-2.2894 -0.517839,-1.47175 -0.517839,-3.40684 v -7.90386 h 2.044103 v 7.35877 q 0,1.90783 0.381565,3.05253 0.381566,1.14469 1.226462,1.66253 0.87215,0.49059 2.289395,0.49059 1.144697,0 2.016847,-0.10902 0.899405,-0.13627 1.171952,-0.21804 v -12.23736 h 2.016848 v 13.62735 q -0.817641,0.21804 -2.20763,0.49059 -1.362735,0.27254 -3.270564,0.27254 z m 10.056959,-0.27254 v -13.62735 q 0.844895,-0.21804 2.207628,-0.49059 1.36274,-0.27255 3.27057,-0.27255 2.20763,0 3.43409,0.81765 1.22646,0.81764 1.71704,2.28939 0.51784,1.4445 0.51784,3.37958 v 7.90387 h -2.0441 v -7.33152 q 0,-1.93508 -0.35431,-3.07978 -0.35431,-1.1447 -1.19921,-1.66254 -0.84489,-0.51784 -2.3439,-0.51784 -1.1447,0 -2.01685,0.13628 -0.87215,0.13627 -1.1447,0.21804 v 12.23736 z m 15.562408,0 v -14.11794 h 2.0441 v 14.11794 z m 1.03568,-17.14321 q -0.5996,0 -1.03568,-0.40882 -0.40882,-0.40882 -0.40882,-1.09019 0,-0.65411 0.40882,-1.06293 0.43608,-0.40882 1.03568,-0.40882 0.5996,0 1.00842,0.40882 0.43608,0.40882 0.43608,1.06293 0,0.68137 -0.43608,1.09019 -0.40882,0.40882 -1.00842,0.40882 z m 11.52869,17.44301 q -2.23488,0 -3.73389,-0.89941 -1.49901,-0.92666 -2.26214,-2.58919 -0.76313,-1.66254 -0.76313,-3.84292 0,-2.20763 0.79038,-3.87016 0.79039,-1.66254 2.26214,-2.5892 1.49901,-0.95392 3.54312,-0.95392 1.11744,0 2.12586,0.19079 1.00843,0.19078 1.58077,0.49058 l -0.51784,1.71705 q -0.54509,-0.24529 -1.22646,-0.40882 -0.68136,-0.16353 -1.79881,-0.16353 -2.26214,0 -3.46134,1.47175 -1.17196,1.47176 -1.17196,4.11546 0,1.63528 0.49059,2.889 0.49058,1.22646 1.58077,1.93508 1.09019,0.68137 2.889,0.68137 1.06293,0 1.85332,-0.24529 0.81764,-0.24529 1.19921,-0.43608 l 0.40882,1.74431 q -0.51784,0.27254 -1.58078,0.51783 -1.06293,0.2453 -2.20763,0.2453 z m 12.31907,0.0272 q -1.88057,0 -3.35233,-0.8994 -1.47175,-0.92666 -2.31665,-2.5892 -0.81764,-1.66254 -0.81764,-3.89742 0,-2.23489 0.81764,-3.87017 0.8449,-1.66254 2.31665,-2.5892 1.47176,-0.92666 3.35233,-0.92666 1.90783,0 3.37958,0.92666 1.47176,0.92666 2.2894,2.5892 0.84489,1.63528 0.84489,3.87017 0,2.23488 -0.84489,3.89742 -0.81764,1.66254 -2.2894,2.5892 -1.4445,0.8994 -3.37958,0.8994 z m 0,-1.82606 q 1.36273,0 2.3439,-0.68137 0.98117,-0.68137 1.49901,-1.93508 0.5451,-1.25372 0.5451,-2.94351 0,-1.68979 -0.5451,-2.94351 -0.51784,-1.25372 -1.49901,-1.93508 -0.98117,-0.68137 -2.3439,-0.68137 -1.33548,0 -2.31665,0.68137 -0.98117,0.68136 -1.52626,1.93508 -0.51784,1.25372 -0.51784,2.94351 0,1.68979 0.51784,2.94351 0.54509,1.25371 1.52626,1.93508 0.98117,0.68137 2.31665,0.68137 z m 16.43455,1.82606 q -2.07135,0 -3.65213,-0.87215 -1.58077,-0.8994 -2.45292,-2.53469 -0.87215,-1.66253 -0.87215,-3.95193 0,-2.18037 0.73588,-3.84291 0.76313,-1.66254 2.18037,-2.5892 1.4445,-0.95391 3.46135,-0.95391 1.30823,0 2.2894,0.38157 1.00842,0.35431 1.499,0.70862 v -7.46779 l 2.01685,-0.35431 v 20.71357 q -0.51784,0.16353 -1.28097,0.35431 -0.76313,0.16353 -1.7443,0.27255 -0.95391,0.13627 -2.18038,0.13627 z m 0.0273,-1.82606 q 1.19921,0 1.96234,-0.10902 0.79038,-0.13628 1.1992,-0.24529 v -9.5664 q -0.46333,-0.38157 -1.41724,-0.76314 -0.95391,-0.40882 -2.15312,-0.40882 -1.22646,0 -2.09861,0.43608 -0.8449,0.40882 -1.38999,1.17195 -0.51784,0.76313 -0.76313,1.77156 -0.21804,1.00842 -0.21804,2.15312 0,1.77155 0.5996,3.02527 0.62686,1.22646 1.71705,1.88057 1.11744,0.65412 2.56194,0.65412 z m 15.94398,1.79881 q -2.48017,0 -4.03369,-0.95392 -1.52626,-0.95391 -2.26214,-2.61645 -0.70862,-1.66254 -0.70862,-3.7884 0,-2.48018 0.8994,-4.11546 0.89941,-1.63528 2.31665,-2.45292 1.4445,-0.81765 3.02527,-0.81765 1.77156,0 3.05253,0.76314 1.30822,0.73587 2.01685,2.28939 0.70862,1.52626 0.70862,3.89742 0,0.19079 -0.0273,0.46333 0,0.2453 -0.0273,0.46333 h -9.83895 q 0.10902,2.39842 1.28097,3.7339 1.19921,1.30822 3.70664,1.30822 1.38999,0 2.26214,-0.24529 0.89941,-0.27255 1.28097,-0.46333 l 0.35431,1.71705 q -0.38156,0.21803 -1.499,0.51784 -1.09019,0.2998 -2.50744,0.2998 z m -4.82408,-8.53072 h 7.76759 q -0.0272,-1.38999 -0.46333,-2.37116 -0.43607,-1.00843 -1.25371,-1.52627 -0.79039,-0.54509 -1.96234,-0.54509 -1.19921,0 -2.09861,0.62686 -0.89941,0.62686 -1.41725,1.63528 -0.49058,1.00842 -0.57235,2.18038 z" />
    </g>
</svg>