<?xml version="1.0" encoding="UTF-8" standalone="no"?>
<svg width="256.11819mm" height="77.265709mm" viewBox="0 0 256.1182 77.265709" version="1.1"
    xmlns="http://www.w3.org/2000/svg" xmlns:svg="http://www.w3.org/2000/svg">
    <g transform="translate(3.5548472,-109.86714)">
        <rect
            style="fill:none;fill-opacity:0.517889;stroke:#000000;stroke-width:1.9832;stroke-linecap:square;stroke-linejoin:round;stroke-miterlimit:10;stroke-dasharray:none"
            width="254.13499" height="75.282509" x="-2.5632472" y="110.85874" rx="3" />
        <rect
            style="fill:none;fill-opacity:0.517889;stroke:#000000;stroke-width:2;stroke-linecap:square;stroke-linejoin:round;stroke-miterlimit:10;stroke-dasharray:none"
            width="25.68045" height="25.68045" x="15.288074" y="135.65977" rx="2" />
        <path
            d="M 58.601851,154.44887 V 143.6285 h 1.608221 v 10.82037 z m 4.403077,-7.76006 q -0.109297,-0.5621 -0.187366,-1.12419 -0.06245,-0.5621 -0.109297,-1.10858 -0.04684,-0.54649 -0.04684,-1.07736 v -0.7963 h 1.608221 v 0.81192 q 0,0.51525 -0.04684,1.06174 -0.04684,0.54648 -0.12491,1.10858 -0.07807,0.56209 -0.171752,1.12419 z m 3.591144,7.76006 v -7.85374 q 0.53087,-0.14053 1.342787,-0.28105 0.811918,-0.15614 1.842429,-0.15614 0.827531,0 1.374014,0.21859 0.562097,0.2186 0.9056,0.60894 0.20298,-0.14052 0.577711,-0.3435 0.374731,-0.20298 0.874373,-0.34351 0.515255,-0.14052 1.10858,-0.14052 1.264717,0 1.920497,0.48403 0.671393,0.46841 0.9056,1.31156 0.234207,0.82753 0.234207,1.93611 v 4.55923 h -1.545766 v -4.24696 q 0,-0.93682 -0.140524,-1.53015 -0.140524,-0.60894 -0.499642,-0.88998 -0.359117,-0.28105 -1.046124,-0.28105 -0.437187,0 -0.796304,0.10929 -0.343504,0.0937 -0.593324,0.23421 -0.249821,0.14052 -0.390345,0.23421 0.12491,0.37473 0.187365,0.84314 0.06245,0.46842 0.06245,0.98367 v 4.54362 h -1.545766 v -4.24696 q 0,-0.93682 -0.140524,-1.53015 -0.140524,-0.60894 -0.515255,-0.88998 -0.359118,-0.28105 -1.077353,-0.28105 -0.343503,0 -0.640165,0.0312 -0.296663,0.0156 -0.515256,0.0625 -0.218593,0.0312 -0.32789,0.0624 v 6.79201 z m 17.112707,0 v -7.85374 q 0.530869,-0.14053 1.3584,-0.28105 0.827532,-0.15614 1.904884,-0.15614 1.311559,0 2.029794,0.46841 0.733848,0.46842 1.030511,1.31156 0.296662,0.82753 0.296662,1.95173 v 4.55923 h -1.545766 v -4.24696 q 0,-0.99928 -0.187366,-1.57699 -0.171752,-0.59332 -0.593324,-0.85876 -0.421573,-0.26543 -1.186649,-0.26543 -0.515256,0 -0.952442,0.0624 -0.421573,0.0468 -0.593324,0.0937 v 6.79201 z m 12.397349,0.20298 q -1.124193,0 -1.998566,-0.53087 -0.858759,-0.53087 -1.342787,-1.48331 -0.484028,-0.96806 -0.484028,-2.264 0,-1.28034 0.484028,-2.23278 0.499642,-0.95244 1.358401,-1.48331 0.874373,-0.53087 1.982952,-0.53087 1.124194,0 1.982953,0.53087 0.858759,0.53087 1.342787,1.48331 0.499641,0.95244 0.499641,2.23278 0,1.29594 -0.484027,2.264 -0.484028,0.95244 -1.342787,1.48331 -0.843145,0.53087 -1.998567,0.53087 z m 0,-1.3584 q 0.702621,0 1.186649,-0.35912 0.499642,-0.35912 0.765076,-1.0149 0.281049,-0.65578 0.281049,-1.54576 0,-0.87438 -0.281049,-1.53016 -0.265434,-0.65578 -0.765076,-0.99928 -0.484028,-0.35912 -1.186649,-0.35912 -0.687007,0 -1.186648,0.35912 -0.499642,0.3435 -0.78069,0.99928 -0.265435,0.65578 -0.265435,1.53016 0,0.88998 0.265435,1.54576 0.281048,0.65578 0.78069,1.0149 0.499641,0.35912 1.186648,0.35912 z m 8.681262,1.32717 q -1.10858,0 -1.74875,-0.37473 -0.62455,-0.39035 -0.88999,-1.13981 -0.24982,-0.74946 -0.24982,-1.8112 v -7.21358 l 1.54577,-0.26543 v 2.49821 h 3.04469 v 1.29594 h -3.04469 v 3.7317 q 0,0.73385 0.17175,1.17104 0.17175,0.42157 0.49964,0.59332 0.34351,0.17175 0.84315,0.17175 0.53087,0 0.92121,-0.10929 0.40596,-0.12491 0.6714,-0.23421 l 0.26543,1.23349 q -0.29666,0.14052 -0.82753,0.29666 -0.53087,0.15614 -1.20226,0.15614 z m 9.8523,0 q -0.93683,0 -1.67068,-0.24982 -0.71823,-0.24982 -1.12419,-0.82753 -0.40596,-0.57771 -0.40596,-1.51454 0,-0.92122 0.4528,-1.4677 0.4528,-0.5621 1.23349,-0.81192 0.78069,-0.24982 1.73313,-0.24982 0.43719,0 0.87438,0.0625 0.4528,0.0625 0.59332,0.12491 v -0.37473 q 0,-0.49964 -0.14052,-0.92122 -0.14053,-0.42157 -0.53087,-0.687 -0.37473,-0.26544 -1.1242,-0.26544 -0.78069,0 -1.28033,0.1093 -0.48403,0.10929 -0.76507,0.21859 l -0.20298,-1.28033 q 0.31227,-0.12491 0.95244,-0.23421 0.64016,-0.12491 1.43647,-0.12491 1.18665,0 1.87365,0.39035 0.70262,0.39034 0.99929,1.10858 0.29666,0.70262 0.29666,1.62383 v 4.99642 q -0.39035,0.0937 -1.24911,0.23421 -0.85875,0.14052 -1.95172,0.14052 z m 0.15614,-1.26472 q 0.48403,0 0.87437,-0.0312 0.40596,-0.0312 0.65578,-0.0781 v -2.40453 q -0.14052,-0.0625 -0.48403,-0.12491 -0.3435,-0.0625 -0.82753,-0.0625 -0.48403,0 -0.95244,0.1093 -0.4528,0.0937 -0.76508,0.37473 -0.29666,0.28105 -0.29666,0.85876 0,0.76508 0.48403,1.06174 0.48403,0.29666 1.31156,0.29666 z m 9.07159,1.09297 v -7.72883 q 0.48402,-0.18737 1.23349,-0.37473 0.76507,-0.18737 1.77997,-0.18737 0.29666,0 0.62455,0.0468 0.34351,0.0312 0.64017,0.0937 0.29666,0.0469 0.4528,0.12491 l -0.28105,1.29595 q -0.20298,-0.0625 -0.60894,-0.14052 -0.39034,-0.0781 -0.95244,-0.0781 -0.46841,0 -0.84315,0.0781 -0.35911,0.0625 -0.48402,0.12491 v 6.74516 z m 9.4631,0.20298 q -1.1242,0 -1.99857,-0.53087 -0.85876,-0.53087 -1.34279,-1.48331 -0.48402,-0.96806 -0.48402,-2.264 0,-1.28034 0.48402,-2.23278 0.49964,-0.95244 1.3584,-1.48331 0.87438,-0.53087 1.98296,-0.53087 1.12419,0 1.98295,0.53087 0.85876,0.53087 1.34279,1.48331 0.49964,0.95244 0.49964,2.23278 0,1.29594 -0.48403,2.264 -0.48403,0.95244 -1.34279,1.48331 -0.84314,0.53087 -1.99856,0.53087 z m 0,-1.3584 q 0.70262,0 1.18665,-0.35912 0.49964,-0.35912 0.76507,-1.0149 0.28105,-0.65578 0.28105,-1.54576 0,-0.87438 -0.28105,-1.53016 -0.26543,-0.65578 -0.76507,-0.99928 -0.48403,-0.35912 -1.18665,-0.35912 -0.68701,0 -1.18665,0.35912 -0.49964,0.3435 -0.78069,0.99928 -0.26544,0.65578 -0.26544,1.53016 0,0.88998 0.26544,1.54576 0.28105,0.65578 0.78069,1.0149 0.49964,0.35912 1.18665,0.35912 z m 8.9623,1.34278 q -0.64016,0 -1.21787,-0.0625 -0.57771,-0.0625 -1.06174,-0.17175 -0.46842,-0.1093 -0.82753,-0.20298 v -11.60106 l 1.56138,-0.26543 v 4.35625 q 0.31227,-0.18737 0.82753,-0.35912 0.53087,-0.18736 1.18665,-0.18736 1.17103,0 1.96734,0.54648 0.81191,0.53087 1.23349,1.48331 0.43718,0.95244 0.43718,2.21716 0,1.31156 -0.51525,2.264 -0.49964,0.95244 -1.42086,1.4677 -0.9056,0.51525 -2.17032,0.51525 z m -0.0156,-1.34278 q 0.78069,0 1.34279,-0.34351 0.56209,-0.35911 0.85876,-1.01489 0.31227,-0.65578 0.31227,-1.577 0,-0.62455 -0.12491,-1.13981 -0.12491,-0.53086 -0.40596,-0.92121 -0.26543,-0.39034 -0.70262,-0.59332 -0.42157,-0.20298 -1.03051,-0.20298 -0.57771,0 -1.06174,0.18736 -0.46841,0.17175 -0.71823,0.35912 v 5.07448 q 0.20298,0.0625 0.57771,0.12492 0.39034,0.0468 0.95244,0.0468 z m 9.52441,1.3584 q -1.1242,0 -1.99857,-0.53087 -0.85876,-0.53087 -1.34279,-1.48331 -0.48402,-0.96806 -0.48402,-2.264 0,-1.28034 0.48402,-2.23278 0.49964,-0.95244 1.3584,-1.48331 0.87438,-0.53087 1.98296,-0.53087 1.12419,0 1.98295,0.53087 0.85876,0.53087 1.34279,1.48331 0.49964,0.95244 0.49964,2.23278 0,1.29594 -0.48403,2.264 -0.48403,0.95244 -1.34279,1.48331 -0.84314,0.53087 -1.99856,0.53087 z m 0,-1.3584 q 0.70262,0 1.18665,-0.35912 0.49964,-0.35912 0.76507,-1.0149 0.28105,-0.65578 0.28105,-1.54576 0,-0.87438 -0.28105,-1.53016 -0.26543,-0.65578 -0.76507,-0.99928 -0.48403,-0.35912 -1.18665,-0.35912 -0.68701,0 -1.18665,0.35912 -0.49964,0.3435 -0.78069,0.99928 -0.26544,0.65578 -0.26544,1.53016 0,0.88998 0.26544,1.54576 0.28105,0.65578 0.78069,1.0149 0.49964,0.35912 1.18665,0.35912 z m 8.68125,1.32717 q -1.10858,0 -1.74874,-0.37473 -0.62455,-0.39035 -0.88999,-1.13981 -0.24982,-0.74946 -0.24982,-1.8112 v -7.21358 l 1.54577,-0.26543 v 2.49821 h 3.04469 v 1.29594 h -3.04469 v 3.7317 q 0,0.73385 0.17175,1.17104 0.17175,0.42157 0.49964,0.59332 0.3435,0.17175 0.84315,0.17175 0.53087,0 0.92121,-0.10929 0.40596,-0.12491 0.67139,-0.23421 l 0.26544,1.23349 q -0.29666,0.14052 -0.82753,0.29666 -0.53087,0.15614 -1.20227,0.15614 z" />
    </g>
</svg>