<svg width="907.198" height="90.24" viewBox="0 0 240.029 23.876" xmlns="http://www.w3.org/2000/svg">
    <path
        d="M0 23.876L9.017 0h2.413L2.413 23.876zm17.83-8.712l-1.752-1.245 1.651-2.362q.33-.457.89-1.118.583-.66 1.091-1.168-.71-.102-1.498-.305t-1.245-.38L14.25 7.568l.712-2.006 2.743 1.016q.432.152 1.143.482.711.33 1.295.686-.127-.66-.203-1.346-.05-.711-.05-1.194V2.032h2.133v3.175q0 .483-.076 1.194-.077.686-.204 1.346.61-.356 1.296-.686.711-.33 1.168-.482l2.743-1.016.712 2.006-2.718 1.016q-.457.178-1.245.381-.787.203-1.498.305.508.508 1.092 1.194.584.66.889 1.092l1.65 2.362-1.752 1.245-1.65-2.388q-.306-.432-.737-1.194-.432-.762-.737-1.422-.305.66-.737 1.422-.431.737-.736 1.194zm28.322 5.918V7.112h2.286v2.667h.025q.178-1.397 1.143-2.159.965-.762 2.566-.762 2.108 0 3.352 1.295 1.245 1.296 1.245 3.531v9.398h-2.286V12.09q0-1.6-.813-2.438-.787-.864-2.159-.864-1.422 0-2.26.89-.813.888-.813 2.514v8.89zm20.523.203q-2.515 0-4.013-1.473-1.474-1.473-1.474-4.115v-3.2q0-2.667 1.474-4.115 1.473-1.473 4.013-1.473t4.013 1.473q1.473 1.448 1.473 4.115v3.2q0 2.642-1.498 4.115-1.474 1.473-3.988 1.473zm0-2.032q1.498 0 2.337-.838.863-.838.863-2.464v-3.708q0-1.626-.863-2.464-.839-.838-2.337-.838-1.473 0-2.337.838-.864.838-.864 2.464v3.708q0 1.626.864 2.464.864.838 2.337.838zm30.683 2.083q-2.54 0-4.064-1.422-1.524-1.423-1.524-3.912v-3.81q0-2.49 1.524-3.912 1.524-1.422 4.064-1.422 2.413 0 3.886 1.295 1.499 1.296 1.575 3.531h-2.286q-.076-1.346-.914-2.057-.839-.737-2.261-.737-1.499 0-2.413.864-.889.838-.889 2.413v3.835q0 1.575.889 2.438.914.864 2.413.864 1.422 0 2.26-.737.839-.736.915-2.057h2.286q-.076 2.235-1.575 3.53-1.473 1.296-3.886 1.296zm15.037-.05q-2.515 0-4.013-1.474-1.474-1.473-1.474-4.115v-3.2q0-2.667 1.474-4.115 1.473-1.473 4.013-1.473t4.013 1.473q1.473 1.448 1.473 4.115v3.2q0 2.642-1.498 4.115-1.474 1.473-3.988 1.473zm0-2.033q1.498 0 2.337-.838.863-.838.863-2.464v-3.708q0-1.626-.863-2.464-.839-.838-2.337-.838-1.473 0-2.337.838-.864.838-.864 2.464v3.708q0 1.626.864 2.464.864.838 2.337.838zm9.144 1.829V7.112h1.98v1.854h.052q.127-.94.736-1.524.635-.584 1.6-.584.915 0 1.55.533.635.534.914 1.448h.026q.178-.914.787-1.448.635-.533 1.6-.533 1.347 0 2.134 1.016.813.99.813 2.59v10.618h-2.134V10.439q0-.838-.406-1.32-.407-.508-1.118-.508-.686 0-1.092.482-.406.483-.406 1.321v10.668h-1.88V10.439q0-.838-.406-1.32-.407-.508-1.093-.508-.71 0-1.117.482-.407.483-.407 1.321v10.668zm15.24 0V7.112h1.98v1.854h.052q.127-.94.736-1.524.635-.584 1.6-.584.915 0 1.55.533.635.534.914 1.448h.026q.177-.914.787-1.448.635-.533 1.6-.533 1.346 0 2.134 1.016.813.99.813 2.59v10.618h-2.134V10.439q0-.838-.406-1.32-.407-.508-1.118-.508-.686 0-1.092.482-.407.483-.407 1.321v10.668h-1.88V10.439q0-.838-.406-1.32-.406-.508-1.092-.508-.71 0-1.117.482-.407.483-.407 1.321v10.668zm21.336.254q-2.464 0-3.988-1.473-1.499-1.499-1.499-4.115v-3.302q0-2.616 1.499-4.09 1.524-1.498 3.988-1.498 1.65 0 2.87.66 1.244.66 1.93 1.855.686 1.193.686 2.819v2.49h-8.738v1.32q0 1.55.89 2.464.888.889 2.362.889 1.27 0 2.082-.483.839-.508 1.016-1.346h2.286q-.228 1.753-1.701 2.794-1.474 1.016-3.683 1.016zm-3.252-8.433h6.503v-.711q0-1.651-.864-2.54-.838-.914-2.387-.914-1.55 0-2.413.914-.839.889-.839 2.54zm13.208 8.179V7.112h2.286v2.667h.026q.178-1.397 1.143-2.159.965-.762 2.565-.762 2.108 0 3.353 1.295 1.245 1.296 1.245 3.531v9.398h-2.286V12.09q0-1.6-.813-2.438-.788-.864-2.16-.864-1.422 0-2.26.89-.813.888-.813 2.514v8.89zm21.92 0q-1.727 0-2.768-.99-1.041-1.017-1.041-2.693V9.195h-4.014V7.112h4.014V3.175h2.286v3.937h5.715v2.083h-5.715v8.204q0 .711.406 1.168.432.432 1.118.432h4.064v2.083zm25.96-.584l-1.753-1.245 1.65-2.362q.33-.457.915-1.118.559-.66 1.067-1.168-.711-.102-1.499-.305-.787-.203-1.244-.38l-2.718-1.017.711-2.006 2.743 1.016q.432.152 1.143.482.711.33 1.296.686-.127-.66-.178-1.346-.076-.711-.076-1.194V7.366h2.133v3.175q0 .483-.076 1.194-.076.686-.203 1.346.61-.356 1.32-.686.686-.33 1.144-.482l2.743-1.016.711 2.006-2.718 1.016q-.457.178-1.244.381-.788.203-1.499.305.508.508 1.092 1.194.584.66.89 1.092l1.65 2.362-1.752 1.245-1.651-2.388q-.305-.432-.737-1.194t-.737-1.422q-.304.66-.736 1.422-.432.737-.737 1.194zm12.648 3.378L237.616 0h2.413l-9.017 23.876z" />
</svg>