<?xml version="1.0" encoding="UTF-8" standalone="no"?>
<!-- Created with Inkscape (http://www.inkscape.org/) -->

<svg
   width="351.45563mm"
   height="44.538284mm"
   viewBox="0 0 351.45563 44.538284"
   version="1.1"
   id="svg1"
   inkscape:version="1.4.2 (ebf0e940d0, 2025-05-08)"
   sodipodi:docname="object-object.svg"
   xmlns:inkscape="http://www.inkscape.org/namespaces/inkscape"
   xmlns:sodipodi="http://sodipodi.sourceforge.net/DTD/sodipodi-0.dtd"
   xmlns="http://www.w3.org/2000/svg"
   xmlns:svg="http://www.w3.org/2000/svg">
  <sodipodi:namedview
     id="namedview1"
     pagecolor="#505050"
     bordercolor="#eeeeee"
     borderopacity="1"
     inkscape:showpageshadow="0"
     inkscape:pageopacity="0"
     inkscape:pagecheckerboard="0"
     inkscape:deskcolor="#505050"
     inkscape:document-units="mm"
     inkscape:zoom="0.7198092"
     inkscape:cx="752.28269"
     inkscape:cy="211.16707"
     inkscape:window-width="1920"
     inkscape:window-height="1014"
     inkscape:window-x="0"
     inkscape:window-y="0"
     inkscape:window-maximized="1"
     inkscape:current-layer="layer1" />
  <defs
     id="defs1" />
  <g
     inkscape:label="Layer 1"
     inkscape:groupmode="layer"
     id="layer1"
     transform="translate(94.080047,-92.942059)">
    <path
       style="font-size:44.0973px;line-height:1;font-family:'JetBrains Mono';-inkscape-font-specification:'JetBrains Mono, @wght=500';font-variation-settings:'wght' 500;text-align:center;letter-spacing:-1.98438px;text-anchor:middle;stroke-width:3.96875;stroke-linecap:square;stroke-miterlimit:0"
       d="M -94.080081,134.39352 V 92.942056 h 11.200714 v 3.92466 h -6.835081 v 33.602144 h 6.835081 v 3.92466 z m 28.883746,-4.49793 q -2.954519,0 -5.159384,-1.14653 -2.160768,-1.14653 -3.351395,-3.30729 -1.190627,-2.20487 -1.190627,-5.24758 v -5.55626 q 0,-3.08681 1.190627,-5.24758 1.190627,-2.16077 3.351395,-3.3073 2.204865,-1.14653 5.159384,-1.14653 2.998617,0 5.159384,1.14653 2.160768,1.14653 3.351395,3.3073 1.190628,2.16077 1.190628,5.24758 v 5.55626 q 0,3.04271 -1.190628,5.24758 -1.190627,2.16076 -3.395492,3.30729 -2.160768,1.14653 -5.115287,1.14653 z m 0,-3.83646 q 2.513546,0 3.92466,-1.36702 1.411114,-1.41111 1.411114,-4.10105 v -6.35001 q 0,-2.68993 -1.411114,-4.05695 -1.411114,-1.41111 -3.92466,-1.41111 -2.469449,0 -3.92466,1.41111 -1.411113,1.36702 -1.411113,4.05695 v 6.35001 q 0,2.68994 1.411113,4.10105 1.455211,1.36702 3.92466,1.36702 z m 26.105617,3.92466 q -3.086812,0 -4.938898,-1.7198 -1.80799,-1.71979 -1.80799,-4.71841 l 1.014238,1.27882 h -0.926043 v 4.71842 h -4.321536 V 97.351786 h 4.365633 v 6.967374 l -0.08819,5.68855 h 0.97014 l -1.058335,1.27882 q 0,-2.95452 1.852087,-4.67431 1.896184,-1.76389 4.938898,-1.76389 3.615978,0 5.776746,2.46945 2.160768,2.42535 2.160768,6.65869 v 6.92328 q 0,4.18924 -2.160768,6.65869 -2.160768,2.42535 -5.776746,2.42535 z m -1.543406,-3.79237 q 2.425352,0 3.748271,-1.27882 1.367016,-1.27882 1.367016,-4.05695 v -6.87918 q 0,-2.82223 -1.367016,-4.05695 -1.322919,-1.27882 -3.748271,-1.27882 -2.337157,0 -3.704173,1.4993 -1.367017,1.45521 -1.367017,4.05696 v 6.4382 q 0,2.60174 1.367017,4.10105 1.367016,1.45521 3.704173,1.45521 z m 15.037196,11.28891 v -3.96876 h 5.688551 q 2.601741,0 4.012855,-1.45521 1.455211,-1.41111 1.455211,-3.96875 v -18.82955 h -11.377104 v -3.96876 h 15.742737 v 22.8424 q 0,4.27744 -2.645838,6.79099 -2.645838,2.55764 -7.099666,2.55764 z m 12.964606,-36.46847 q -1.499308,0 -2.381254,-0.74965 -0.881946,-0.793753 -0.881946,-2.116672 0,-1.367017 0.881946,-2.160768 0.881946,-0.793752 2.381254,-0.793752 1.499308,0 2.381255,0.793752 0.8819455,0.793751 0.8819455,2.160768 0,1.322919 -0.8819455,2.116672 -0.881947,0.74965 -2.381255,0.74965 z m 20.8580358,28.97193 q -2.9104219,0 -5.115287,-1.14653 -2.16076776,-1.19063 -3.3954922,-3.3514 -1.1906271,-2.20486 -1.1906271,-5.20348 v -5.73265 q 0,-3.04271 1.1906271,-5.20348 1.23472444,-2.16077 3.3954922,-3.3073 2.2048651,-1.19062 5.115287,-1.19062 2.9104222,0 5.0711892,1.14653 2.204866,1.14653 3.395493,3.2632 1.234724,2.07257 1.234724,4.9389 v 4.32153 H 2.8017457 v 2.11667 q 0,2.64584 1.455211,4.14515 1.4993082,1.49931 3.9687571,1.49931 2.0725732,0 3.4395892,-0.79376 1.411114,-0.79375 1.675698,-2.20486 h 4.365633 q -0.440973,3.08681 -3.042714,4.8948 -2.601741,1.80799 -6.4382062,1.80799 z m 5.4239682,-14.28753 v -1.5434 q 0,-2.77813 -1.411114,-4.27744 -1.411113,-1.49931 -4.0128542,-1.49931 -2.6017408,0 -4.0128544,1.54341 -1.4111137,1.49931 -1.4111137,4.27744 v 1.10243 H 14.00246 Z m 19.402832,14.28753 q -2.954519,0 -5.203481,-1.10243 -2.204866,-1.14653 -3.43959,-3.21911 -1.190627,-2.11667 -1.190627,-5.02709 v -6.4382 q 0,-2.95452 1.190627,-5.0271 1.234724,-2.07257 3.43959,-3.175 2.248962,-1.14653 5.203481,-1.14653 4.277438,0 6.879179,2.29306 2.645838,2.24896 2.77813,6.17362 h -4.321535 q -0.132292,-2.20487 -1.543406,-3.39549 -1.411114,-1.19063 -3.792368,-1.19063 -2.513546,0 -4.012854,1.41111 -1.455211,1.36702 -1.455211,4.01286 v 6.4823 q 0,2.64584 1.455211,4.05695 1.499308,1.41112 4.012854,1.41112 2.381254,0 3.792368,-1.19063 1.411114,-1.23472 1.543406,-3.39549 h 4.321535 q -0.132292,3.92466 -2.77813,6.21772 -2.601741,2.24896 -6.879179,2.24896 z m 26.546588,-0.44097 q -3.086812,0 -4.982996,-1.80799 -1.852086,-1.80799 -1.852086,-4.80661 v -13.67016 h -6.879179 v -3.96876 h 6.879179 v -6.835081 h 4.40973 v 6.835081 h 9.833698 v 3.96876 H 57.17375 v 13.62606 q 0,1.19063 0.66146,1.94028 0.705556,0.74966 1.852086,0.74966 h 7.099666 v 3.96876 z m 46.522678,0.44097 q -4.40973,0 -6.967375,-2.55764 -2.557644,-2.55765 -2.557644,-7.23196 v -13.49378 q 0,-4.71841 2.557644,-7.231953 2.557645,-2.557644 6.967375,-2.557644 4.40973,0 6.96737,2.557644 2.55765,2.513543 2.55765,7.187863 v 13.53787 q 0,4.67431 -2.55765,7.23196 -2.55764,2.55764 -6.96737,2.55764 z m 0,-3.88056 q 2.51354,0 3.83646,-1.41112 1.32292,-1.41111 1.32292,-4.05695 v -14.37572 q 0,-2.64584 -1.32292,-4.05695 -1.32292,-1.41111 -3.83646,-1.41111 -2.46945,0 -3.83647,1.41111 -1.32292,1.41111 -1.32292,4.05695 v 14.37572 q 0,2.64584 1.32292,4.05695 1.36702,1.41112 3.83647,1.41112 z m 26.10563,3.88056 q -3.08681,0 -4.9389,-1.7198 -1.80799,-1.71979 -1.80799,-4.71841 l 1.01424,1.27882 h -0.92604 v 4.71842 h -4.32154 V 97.351786 h 4.36563 v 6.967374 l -0.0882,5.68855 h 0.97014 l -1.05834,1.27882 q 0,-2.95452 1.85209,-4.67431 1.89618,-1.76389 4.9389,-1.76389 3.61598,0 5.77674,2.46945 2.16077,2.42535 2.16077,6.65869 v 6.92328 q 0,4.18924 -2.16077,6.65869 -2.16076,2.42535 -5.77674,2.42535 z m -1.54341,-3.79237 q 2.42535,0 3.74827,-1.27882 1.36702,-1.27882 1.36702,-4.05695 v -6.87918 q 0,-2.82223 -1.36702,-4.05695 -1.32292,-1.27882 -3.74827,-1.27882 -2.33715,0 -3.70417,1.4993 -1.36702,1.45521 -1.36702,4.05696 v 6.4382 q 0,2.60174 1.36702,4.10105 1.36702,1.45521 3.70417,1.45521 z m 15.03719,11.28891 v -3.96876 h 5.68856 q 2.60174,0 4.01285,-1.45521 1.45521,-1.41111 1.45521,-3.96875 v -18.82955 h -11.3771 v -3.96876 h 15.74273 v 22.8424 q 0,4.27744 -2.64583,6.79099 -2.64584,2.55764 -7.09967,2.55764 z m 12.96461,-36.46847 q -1.49931,0 -2.38125,-0.74965 -0.88195,-0.793753 -0.88195,-2.116672 0,-1.367017 0.88195,-2.160768 0.88194,-0.793752 2.38125,-0.793752 1.49931,0 2.38126,0.793752 0.88194,0.793751 0.88194,2.160768 0,1.322919 -0.88194,2.116672 -0.88195,0.74965 -2.38126,0.74965 z m 20.85802,28.97193 q -2.91042,0 -5.11529,-1.14653 -2.16076,-1.19063 -3.39549,-3.3514 -1.19062,-2.20486 -1.19062,-5.20348 v -5.73265 q 0,-3.04271 1.19062,-5.20348 1.23473,-2.16077 3.39549,-3.3073 2.20487,-1.19062 5.11529,-1.19062 2.91042,0 5.07119,1.14653 2.20487,1.14653 3.39549,3.2632 1.23473,2.07257 1.23473,4.9389 v 4.32153 h -15.12538 v 2.11667 q 0,2.64584 1.45521,4.14515 1.49931,1.49931 3.96876,1.49931 2.07257,0 3.43959,-0.79376 1.41111,-0.79375 1.6757,-2.20486 h 4.36563 q -0.44097,3.08681 -3.04271,4.8948 -2.60174,1.80799 -6.43821,1.80799 z m 5.42397,-14.28753 v -1.5434 q 0,-2.77813 -1.41111,-4.27744 -1.41112,-1.49931 -4.01286,-1.49931 -2.60174,0 -4.01285,1.54341 -1.41112,1.49931 -1.41112,4.27744 v 1.10243 h 11.20072 z m 19.40284,14.28753 q -2.95452,0 -5.20348,-1.10243 -2.20487,-1.14653 -3.43959,-3.21911 -1.19063,-2.11667 -1.19063,-5.02709 v -6.4382 q 0,-2.95452 1.19063,-5.0271 1.23472,-2.07257 3.43959,-3.175 2.24896,-1.14653 5.20348,-1.14653 4.27744,0 6.87918,2.29306 2.64584,2.24896 2.77813,6.17362 h -4.32154 q -0.13229,-2.20487 -1.5434,-3.39549 -1.41112,-1.19063 -3.79237,-1.19063 -2.51355,0 -4.01286,1.41111 -1.45521,1.36702 -1.45521,4.01286 v 6.4823 q 0,2.64584 1.45521,4.05695 1.49931,1.41112 4.01286,1.41112 2.38125,0 3.79237,-1.19063 1.41111,-1.23472 1.5434,-3.39549 h 4.32154 q -0.13229,3.92466 -2.77813,6.21772 -2.60174,2.24896 -6.87918,2.24896 z m 26.5466,-0.44097 q -3.08681,0 -4.98299,-1.80799 -1.85209,-1.80799 -1.85209,-4.80661 v -13.67016 h -6.87918 v -3.96876 h 6.87918 v -6.835081 h 4.40973 v 6.835081 h 9.8337 v 3.96876 h -9.8337 v 13.62606 q 0,1.19063 0.66146,1.94028 0.70556,0.74966 1.85209,0.74966 h 7.09966 v 3.96876 z m 15.25767,4.8507 v -3.92466 h 6.83508 V 96.866716 h -6.83508 v -3.92466 h 11.20071 v 41.451464 z"
       id="text1"
       aria-label="[object Object]" />
  </g>
</svg>
