<?xml version="1.0" encoding="UTF-8" standalone="no"?>
<svg width="144.45789mm" height="23.235697mm" viewBox="0 0 144.45789 23.235697" version="1.1"
    xmlns="http://www.w3.org/2000/svg" xmlns:svg="http://www.w3.org/2000/svg">
    <g transform="translate(-51.415458,-103.60109)">
        <path
            d="m 51.415458,111.51932 v -2.42204 L 65.481971,114.66 v 2.20912 l -14.066513,5.56273 v -2.43536 l 11.311765,-4.21862 z m 30.608305,0.95818 q -0.78517,-0.61217 -1.596955,-0.89164 -0.811786,-0.27946 -1.783267,-0.27946 -2.288969,0 -3.499993,1.43726 -1.211024,1.43726 -1.211024,4.15208 v 7.41253 h -2.461972 v -14.90491 h 2.461972 v 2.91444 q 0.612166,-1.58364 1.876422,-2.42205 1.277564,-0.85171 3.020907,-0.85171 0.904941,0 1.690111,0.22624 0.785169,0.22624 1.503799,0.70532 z m 10.0342,-1.55703 q 0.452471,-0.95818 1.144484,-1.41065 0.705322,-0.46578 1.690111,-0.46578 1.796575,0 2.528512,1.39734 0.745246,1.38403 0.745246,5.23003 v 8.63686 h -2.235737 v -8.5304 q 0,-3.15398 -0.359315,-3.91254 -0.346007,-0.77186 -1.277564,-0.77186 -1.064637,0 -1.463875,0.82509 -0.385931,0.81179 -0.385931,3.85931 v 8.5304 h -2.235737 v -8.5304 q 0,-3.19391 -0.385931,-3.93915 -0.372623,-0.74525 -1.357412,-0.74525 -0.971481,0 -1.357412,0.82509 -0.372623,0.81179 -0.372623,3.85931 v 8.5304 H 84.51235 v -14.90491 h 2.222429 v 1.27756 q 0.439163,-0.79847 1.091253,-1.21102 0.665398,-0.42586 1.503799,-0.42586 1.011405,0 1.676803,0.46578 0.678706,0.46578 1.051329,1.41065 z m 25.178657,3.75284 h 14.10644 v 2.24905 h -14.10644 z m 30.42199,-2.19581 q -0.78517,-0.61217 -1.59695,-0.89164 -0.81179,-0.27946 -1.78327,-0.27946 -2.28897,0 -3.49999,1.43726 -1.21102,1.43726 -1.21102,4.15208 v 7.41253 h -2.46198 v -14.90491 h 2.46198 v 2.91444 q 0.61216,-1.58364 1.87642,-2.42205 1.27756,-0.85171 3.0209,-0.85171 0.90495,0 1.69012,0.22624 0.78516,0.22624 1.50379,0.70532 z m 15.18438,-8.87641 v 2.03612 h -2.78136 q -1.31749,0 -1.8365,0.54562 -0.50571,0.53232 -0.50571,1.90304 v 1.31749 h 5.12357 v 1.90304 h -5.12357 v 13.00187 h -2.44866 V 111.3064 h -3.97908 v -1.90304 h 3.97908 v -1.03802 q 0,-2.44867 1.11787,-3.60646 1.13118,-1.15779 3.5133,-1.15779 z m 30.50184,0.8384 h 2.52851 l -10.46005,22.3973 h -2.54182 z" />
    </g>
</svg>