<?xml version="1.0" encoding="UTF-8" standalone="no"?>
<!-- Created with Inkscape (http://www.inkscape.org/) -->

<svg
   width="462.13336"
   height="102.60009"
   viewBox="0 0 122.27278 27.146273"
   version="1.1"
   id="svg1"
   inkscape:version="1.4.2 (ebf0e940d0, 2025-05-08)"
   sodipodi:docname="selectively-social [rasterized].svg"
   xmlns:inkscape="http://www.inkscape.org/namespaces/inkscape"
   xmlns:sodipodi="http://sodipodi.sourceforge.net/DTD/sodipodi-0.dtd"
   xmlns="http://www.w3.org/2000/svg"
   xmlns:svg="http://www.w3.org/2000/svg">
  <sodipodi:namedview
     id="namedview1"
     pagecolor="#ffffff"
     bordercolor="#000000"
     borderopacity="0.25"
     inkscape:showpageshadow="2"
     inkscape:pageopacity="0.0"
     inkscape:pagecheckerboard="0"
     inkscape:deskcolor="#d1d1d1"
     inkscape:document-units="mm"
     inkscape:zoom="1.6978226"
     inkscape:cx="227.35002"
     inkscape:cy="53.009072"
     inkscape:window-width="1920"
     inkscape:window-height="1014"
     inkscape:window-x="0"
     inkscape:window-y="0"
     inkscape:window-maximized="1"
     inkscape:current-layer="layer1" />
  <defs
     id="defs1" />
  <g
     inkscape:label="Layer 1"
     inkscape:groupmode="layer"
     id="layer1"
     transform="translate(-44.784301,-134.39233)">
    <g
       id="text1"
       style="font-weight:800;font-size:17.6389px;line-height:0.8;font-family:Ubuntu;-inkscape-font-specification:'Ubuntu Ultra-Bold';text-align:center;text-anchor:middle;stroke-width:2;stroke-linecap:square;stroke-linejoin:round;stroke-miterlimit:10"
       aria-label="SELECTIVELY &#10;SOCIAL">
      <path
         style="font-style:italic;font-weight:bold;font-family:'DejaVu Serif';-inkscape-font-specification:'DejaVu Serif, Bold Italic'"
         d="m 49.141111,147.40985 q -2.187224,0 -3.280836,-0.74084 -1.075972,-0.74083 -1.075972,-1.83444 0,-0.82903 0.617361,-1.23472 0.617362,-0.42334 1.587501,-0.42334 0,1.62278 0.670278,2.39889 0.687917,0.75848 1.76389,0.75848 0.987779,0 1.534585,-0.51153 0.564445,-0.52917 0.564445,-1.30528 0,-0.49389 -0.176389,-0.88195 -0.176389,-0.38805 -0.65264,-0.77611 -0.458611,-0.38805 -1.340556,-0.88194 -1.375834,-0.75848 -2.08139,-1.62278 -0.705557,-0.88195 -0.705557,-2.2225 0,-1.09362 0.564445,-1.905 0.564445,-0.82903 1.60514,-1.28764 1.040695,-0.47625 2.469446,-0.47625 1.905002,0 2.857502,0.58208 0.97014,0.56444 0.97014,1.39347 0,0.7232 -0.511528,1.12889 -0.511528,0.4057 -1.693335,0.4057 0,-0.52917 -0.15875,-1.09362 -0.15875,-0.56444 -0.564445,-0.9525 -0.405694,-0.38805 -1.128889,-0.38805 -0.776112,0 -1.358196,0.44097 -0.582083,0.44097 -0.582083,1.37584 0,0.61736 0.264583,1.02305 0.264584,0.38806 0.776112,0.7232 0.529167,0.33514 1.305278,0.77611 1.340557,0.70555 1.975557,1.5875 0.635001,0.88194 0.635001,2.01083 0,1.86973 -1.322918,2.91042 -1.305279,1.02306 -3.52778,1.02306 z m 5.326956,-0.17639 0.194028,-0.93486 h 0.229306 q 0.564444,0 1.023056,-0.17639 0.458611,-0.19403 0.599723,-0.88195 l 1.834445,-8.6607 q 0.07056,-0.24694 0.07056,-0.40569 0,-0.38806 -0.352778,-0.49389 -0.352778,-0.10583 -0.917223,-0.10583 h -0.229306 l 0.194028,-0.93487 h 9.577923 l -0.617361,3.28084 h -1.252362 q 0.01764,-0.0882 0.03528,-0.3175 0.01764,-0.22931 0.03528,-0.44097 0.01764,-0.22931 0.01764,-0.26459 0,-0.49389 -0.282222,-0.82902 -0.282223,-0.35278 -0.97014,-0.35278 h -2.345973 l -0.934862,4.40972 h 4.00403 l -0.229305,1.05834 h -4.004031 l -1.058334,4.97417 h 2.786946 q 0.829029,0 1.305279,-0.42334 0.47625,-0.44097 0.687917,-1.02305 l 0.282223,-0.75848 h 1.252361 l -0.811389,3.28084 z m 11.165414,0 0.194028,-0.93486 h 0.229306 q 0.564444,0 1.005417,-0.17639 0.458611,-0.19403 0.617361,-0.88195 l 1.799168,-8.46667 q 0.03528,-0.17639 0.07056,-0.33514 0.03528,-0.15875 0.03528,-0.26458 0,-0.38806 -0.370417,-0.49389 -0.352778,-0.10583 -0.899584,-0.10583 h -0.229306 l 0.194028,-0.93487 h 6.085421 l -0.194028,0.93487 h -0.229306 q -0.582084,0 -1.058334,0.19402 -0.47625,0.17639 -0.617361,0.88195 l -1.993196,9.50737 h 2.945696 q 0.97014,0 1.44639,-0.47625 0.493889,-0.47625 0.829028,-1.44639 l 0.317501,-0.93487 h 1.128889 l -0.970139,3.93348 z m 11.535829,0 0.194028,-0.93486 h 0.229306 q 0.564445,0 1.023056,-0.17639 0.458612,-0.19403 0.599723,-0.88195 l 1.834446,-8.6607 q 0.07055,-0.24694 0.07055,-0.40569 0,-0.38806 -0.352778,-0.49389 -0.352778,-0.10583 -0.917223,-0.10583 h -0.229305 l 0.194028,-0.93487 h 9.577923 l -0.617362,3.28084 h -1.252362 q 0.01764,-0.0882 0.03528,-0.3175 0.01764,-0.22931 0.03528,-0.44097 0.01764,-0.22931 0.01764,-0.26459 0,-0.49389 -0.282223,-0.82902 -0.282222,-0.35278 -0.970139,-0.35278 h -2.345974 l -0.934862,4.40972 h 4.004031 l -0.229306,1.05834 h -4.004031 l -1.058334,4.97417 h 2.786947 q 0.829028,0 1.305278,-0.42334 0.476251,-0.44097 0.687918,-1.02305 l 0.282222,-0.75848 h 1.252362 l -0.81139,3.28084 z m 18.026946,0.17639 q -2.522363,0 -3.933475,-1.23472 -1.411112,-1.25237 -1.411112,-3.51015 0,-1.5875 0.546806,-3.06916 0.564445,-1.48167 1.587501,-2.64584 1.023056,-1.18181 2.451807,-1.86972 1.44639,-0.68792 3.21028,-0.68792 1.76389,0 2.628197,0.56444 0.88194,0.56445 0.88194,1.44639 0,0.82903 -0.72319,1.25237 -0.705557,0.42333 -1.78153,0.42333 0,-0.37042 -0.05292,-0.81139 -0.05292,-0.44097 -0.211667,-0.82903 -0.15875,-0.40569 -0.458612,-0.65264 -0.282222,-0.26458 -0.776111,-0.26458 -0.829029,0 -1.516946,0.44097 -0.687917,0.44097 -1.217084,1.19945 -0.529167,0.75847 -0.899584,1.69333 -0.352778,0.91722 -0.546806,1.905 -0.194028,0.97014 -0.194028,1.85209 0,1.62278 0.758473,2.46944 0.776112,0.84667 2.293057,0.84667 1.217084,0 1.975557,-0.49389 0.776112,-0.51153 1.217084,-1.11125 0.105834,0.0706 0.194028,0.24695 0.105834,0.15875 0.105834,0.35277 0,0.58209 -0.476251,1.16417 -0.47625,0.56445 -1.393473,0.9525 -0.917223,0.37042 -2.257779,0.37042 z m 7.161384,-0.17639 0.19402,-0.93486 h 0.22931 q 0.54681,0 1.00542,-0.17639 0.47625,-0.19403 0.61736,-0.88195 l 1.99319,-9.525 h -1.41111 q -0.81139,0 -1.19944,0.42333 -0.38806,0.4057 -0.635,1.16417 l -0.24695,0.75847 h -1.1818 l 0.81138,-3.42195 h 10.9714 l -0.61736,3.42195 h -1.18181 q 0.0176,-0.0705 0.0353,-0.38805 0.0353,-0.33514 0.0706,-0.65264 0.0353,-0.3175 0.0353,-0.37042 0,-0.45861 -0.28222,-0.68792 -0.28222,-0.24694 -0.9525,-0.24694 h -1.41111 l -1.9932,9.40153 q -0.10583,0.42333 -0.10583,0.58209 0,0.38805 0.37042,0.49388 0.37041,0.10584 0.91722,0.10584 h 0.24694 l -0.21166,0.93486 z m 9.27806,0 0.19403,-0.93486 h 0.2293 q 0.54681,0 1.00542,-0.17639 0.45861,-0.19403 0.61736,-0.88195 l 1.81681,-8.46667 q 0.0529,-0.2293 0.0705,-0.37042 0.0176,-0.15875 0.0176,-0.2293 0,-0.38806 -0.35278,-0.49389 -0.35277,-0.10583 -0.91722,-0.10583 h -0.2293 l 0.19402,-0.93487 h 6.08543 l -0.19403,0.93487 h -0.22931 q -0.58208,0 -1.04069,0.19402 -0.45862,0.17639 -0.61737,0.88195 l -1.76389,8.30792 q -0.0529,0.22931 -0.10583,0.42333 -0.0353,0.19403 -0.0353,0.31751 0,0.38805 0.37042,0.49388 0.37042,0.10584 0.91722,0.10584 h 0.22931 l -0.19403,0.93486 z m 10.31874,-10.81265 q -0.0882,-0.5468 -0.38806,-0.68791 -0.28222,-0.15875 -0.72319,-0.15875 h -0.22931 l 0.19403,-0.93487 h 5.82084 l -0.19403,0.93487 h -0.4057 q -0.56444,0 -0.89958,0.14111 -0.33514,0.14111 -0.33514,0.56444 0,0.14111 0,0.3175 0.0176,0.15875 0.0353,0.28222 l 0.58208,4.65667 q 0.0353,0.38806 0.0706,0.97014 0.0353,0.56445 0.0353,1.11125 0.0176,0.54681 0.0176,0.84667 0.21167,-0.45861 0.51153,-1.14653 0.3175,-0.70555 0.74084,-1.44639 l 2.73403,-4.92125 q 0.17639,-0.29986 0.24694,-0.51153 0.0706,-0.21166 0.0706,-0.38805 0,-0.28223 -0.26459,-0.37042 -0.24694,-0.10583 -0.75847,-0.10583 h -0.40569 l 0.17638,-0.93487 h 4.60376 l -0.19403,0.93487 h -0.42333 q -0.35278,0 -0.58209,0.0882 -0.21166,0.0706 -0.42333,0.33514 -0.21167,0.24694 -0.49389,0.75847 L 125.2,147.23346 h -1.76389 z m 9.13694,10.81265 0.19403,-0.93486 h 0.2293 q 0.56445,0 1.02306,-0.17639 0.45861,-0.19403 0.59972,-0.88195 l 1.83445,-8.6607 q 0.0705,-0.24694 0.0705,-0.40569 0,-0.38806 -0.35277,-0.49389 -0.35278,-0.10583 -0.91723,-0.10583 h -0.2293 l 0.19403,-0.93487 h 9.57792 l -0.61736,3.28084 h -1.25237 q 0.0176,-0.0882 0.0353,-0.3175 0.0176,-0.22931 0.0353,-0.44097 0.0176,-0.22931 0.0176,-0.26459 0,-0.49389 -0.28222,-0.82902 -0.28223,-0.35278 -0.97014,-0.35278 h -2.34598 l -0.93486,4.40972 h 4.00403 l -0.2293,1.05834 h -4.00403 l -1.05834,4.97417 h 2.78695 q 0.82903,0 1.30528,-0.42334 0.47625,-0.44097 0.68791,-1.02305 l 0.28223,-0.75848 h 1.25236 l -0.81139,3.28084 z m 11.16541,0 0.19403,-0.93486 h 0.22931 q 0.56444,0 1.00541,-0.17639 0.45862,-0.19403 0.61737,-0.88195 l 1.79916,-8.46667 q 0.0353,-0.17639 0.0706,-0.33514 0.0353,-0.15875 0.0353,-0.26458 0,-0.38806 -0.37042,-0.49389 -0.35278,-0.10583 -0.89958,-0.10583 h -0.22931 l 0.19403,-0.93487 h 6.08542 l -0.19403,0.93487 h -0.2293 q -0.58209,0 -1.05834,0.19402 -0.47625,0.17639 -0.61736,0.88195 l -1.9932,9.50737 h 2.9457 q 0.97014,0 1.44639,-0.47625 0.49389,-0.47625 0.82903,-1.44639 l 0.3175,-0.93487 h 1.12889 l -0.97014,3.93348 z m 12.78821,0 0.19403,-0.93486 h 0.47625 q 0.56444,0 1.00541,-0.19403 0.45861,-0.19403 0.59973,-0.88195 l 0.51152,-2.4518 -1.905,-6.26181 q -0.15875,-0.51153 -0.35278,-0.7232 -0.19402,-0.21166 -0.70555,-0.21166 h -0.22931 l 0.19403,-0.93487 h 5.75028 l -0.19403,0.93487 h -0.81139 q -0.74083,0 -0.74083,0.51152 0,0.33514 0.22931,1.14653 l 0.61736,2.48709 q 0.14111,0.51153 0.26458,1.14653 0.12347,0.635 0.14111,1.05833 0.15875,-0.33514 0.51153,-0.89958 0.35278,-0.56445 0.81139,-1.21709 l 1.72861,-2.4518 q 0.19403,-0.29987 0.35278,-0.65264 0.15875,-0.35278 0.15875,-0.65264 0,-0.22931 -0.24694,-0.35278 -0.24695,-0.12347 -0.82903,-0.12347 h -0.35278 l 0.21167,-0.93487 h 4.62139 l -0.21167,0.93487 h -0.33514 q -0.38805,0 -0.70555,0.24694 -0.29986,0.22931 -0.77611,0.89958 l -4.37445,6.06779 -0.52917,2.41653 q -0.0882,0.35277 -0.0882,0.49389 0,0.38805 0.37041,0.49388 0.37042,0.10584 0.91723,0.10584 h 0.44097 l -0.21167,0.93486 z"
         id="path1" />
      <path
         style="font-style:italic;font-weight:bold;font-family:'DejaVu Serif';-inkscape-font-specification:'DejaVu Serif, Bold Italic'"
         d="m 77.857229,161.52097 q -2.187224,0 -3.280835,-0.74083 -1.075973,-0.74084 -1.075973,-1.83445 0,-0.82903 0.617361,-1.23472 0.617362,-0.42334 1.587501,-0.42334 0,1.62278 0.670279,2.39889 0.687917,0.75848 1.76389,0.75848 0.987778,0 1.534584,-0.51153 0.564445,-0.52917 0.564445,-1.30528 0,-0.49389 -0.176389,-0.88195 -0.176389,-0.38805 -0.65264,-0.77611 -0.458611,-0.38805 -1.340556,-0.88194 -1.375834,-0.75847 -2.08139,-1.62278 -0.705556,-0.88195 -0.705556,-2.2225 0,-1.09361 0.564444,-1.905 0.564445,-0.82903 1.60514,-1.28764 1.040696,-0.47625 2.469447,-0.47625 1.905001,0 2.857501,0.58208 0.97014,0.56444 0.97014,1.39347 0,0.7232 -0.511528,1.12889 -0.511528,0.4057 -1.693335,0.4057 0,-0.52917 -0.15875,-1.09361 -0.15875,-0.56445 -0.564444,-0.95251 -0.405695,-0.38805 -1.12889,-0.38805 -0.776112,0 -1.358195,0.44097 -0.582084,0.44097 -0.582084,1.37584 0,0.61736 0.264583,1.02305 0.264584,0.38806 0.776112,0.7232 0.529167,0.33514 1.305279,0.77611 1.340556,0.70555 1.975556,1.5875 0.635001,0.88194 0.635001,2.01083 0,1.86973 -1.322918,2.91042 -1.305278,1.02306 -3.52778,1.02306 z m 11.765155,0.0176 q -1.393473,0 -2.504724,-0.54681 -1.111251,-0.56444 -1.76389,-1.65805 -0.652639,-1.09362 -0.652639,-2.68112 0,-1.02305 0.299861,-2.1343 0.3175,-1.11126 0.917223,-2.16959 0.599722,-1.05833 1.499306,-1.905 0.917223,-0.86431 2.116668,-1.37583 1.199446,-0.51153 2.681113,-0.51153 1.305279,0 2.41653,0.51153 1.111251,0.51152 1.781529,1.5875 0.687917,1.05833 0.687917,2.75166 0,0.97014 -0.299861,2.0814 -0.299862,1.11125 -0.881945,2.18722 -0.582084,1.05833 -1.481668,1.94028 -0.899584,0.88194 -2.099029,1.41111 -1.199446,0.51153 -2.716391,0.51153 z m 0.352778,-1.16417 q 0.881945,0 1.569862,-0.49389 0.687917,-0.49389 1.181807,-1.30528 0.511528,-0.81139 0.846667,-1.78153 0.335139,-0.98777 0.493889,-1.97555 0.15875,-0.98778 0.15875,-1.81681 0,-1.71097 -0.670278,-2.50472 -0.670278,-0.79375 -1.710974,-0.79375 -0.864306,0 -1.569862,0.49389 -0.687917,0.49388 -1.199445,1.30527 -0.493889,0.81139 -0.829028,1.79917 -0.335139,0.97014 -0.493889,1.95792 -0.158751,0.98778 -0.158751,1.81681 0,1.72861 0.687918,2.52236 0.705556,0.77611 1.693334,0.77611 z m 14.040558,1.14653 q -2.52236,0 -3.93347,-1.23472 -1.411113,-1.25237 -1.411113,-3.51015 0,-1.5875 0.546806,-3.06916 0.564444,-1.48167 1.587497,-2.64584 1.02306,-1.18181 2.45181,-1.86972 1.44639,-0.68792 3.21028,-0.68792 1.76389,0 2.6282,0.56445 0.88194,0.56444 0.88194,1.44639 0,0.82902 -0.72319,1.25236 -0.70556,0.42333 -1.78153,0.42333 0,-0.37042 -0.0529,-0.81139 -0.0529,-0.44097 -0.21167,-0.82903 -0.15875,-0.40569 -0.45861,-0.65264 -0.28222,-0.26458 -0.77611,-0.26458 -0.82903,0 -1.51694,0.44097 -0.68792,0.44098 -1.21709,1.19945 -0.52917,0.75847 -0.89958,1.69333 -0.35278,0.91723 -0.54681,1.905 -0.19403,0.97014 -0.19403,1.85209 0,1.62278 0.75848,2.46944 0.77611,0.84667 2.29305,0.84667 1.21709,0 1.97556,-0.49389 0.77611,-0.51153 1.21709,-1.11125 0.10583,0.0706 0.19402,0.24695 0.10584,0.15875 0.10584,0.35277 0,0.58209 -0.47625,1.16417 -0.47625,0.56445 -1.39348,0.9525 -0.91722,0.37042 -2.25778,0.37042 z m 4.92125,-0.17639 0.19402,-0.93486 h 0.22931 q 0.5468,0 1.00542,-0.17639 0.45861,-0.19403 0.61736,-0.88195 l 1.8168,-8.46667 q 0.0529,-0.2293 0.0706,-0.37041 0.0176,-0.15875 0.0176,-0.22931 0,-0.38806 -0.35278,-0.49389 -0.35278,-0.10583 -0.91722,-0.10583 h -0.22931 l 0.19403,-0.93486 h 6.08542 l -0.19403,0.93486 h -0.2293 q -0.58209,0 -1.0407,0.19402 -0.45861,0.17639 -0.61736,0.88195 l -1.76389,8.30792 q -0.0529,0.22931 -0.10583,0.42334 -0.0353,0.19402 -0.0353,0.3175 0,0.38805 0.37042,0.49389 0.37041,0.10583 0.91722,0.10583 h 0.2293 l -0.19402,0.93486 z m 6.61456,0 0.19403,-0.93486 h 0.37042 q 0.33514,0 0.56444,-0.10583 0.22931,-0.12348 0.45862,-0.42334 0.2293,-0.29986 0.5468,-0.84667 l 5.97959,-10.28347 h 2.43417 l 1.48167,10.38931 q 0.0705,0.5468 0.29986,0.91722 0.2293,0.35278 0.75847,0.35278 h 0.33514 l -0.19403,0.93486 h -5.83848 l 0.19403,-0.93486 h 0.4057 q 0.56444,0 0.89958,-0.17639 0.33514,-0.17639 0.33514,-0.56445 0,-0.14111 -0.0176,-0.28222 0,-0.14111 -0.0176,-0.28222 l -0.2293,-1.905 h -4.3039 l -0.88194,1.5875 q -0.33514,0.61736 -0.33514,0.98778 0,0.635 0.98778,0.635 h 0.35278 l -0.19403,0.93486 z m 6.98501,-8.3432 -1.72861,3.12209 h 3.58069 l -0.35277,-2.96334 q -0.0706,-0.77611 -0.14112,-1.37583 -0.0705,-0.61737 -0.0882,-1.25237 -0.17639,0.42334 -0.35278,0.77612 -0.15875,0.35277 -0.38805,0.75847 -0.21167,0.38805 -0.52917,0.93486 z m 6.7557,8.3432 0.19403,-0.93486 h 0.22931 q 0.56444,0 1.00541,-0.17639 0.45862,-0.19403 0.61737,-0.88195 l 1.79916,-8.46667 q 0.0353,-0.17639 0.0706,-0.33514 0.0353,-0.15875 0.0353,-0.26458 0,-0.38806 -0.37042,-0.49389 -0.35278,-0.10583 -0.89958,-0.10583 h -0.22931 l 0.19403,-0.93486 h 6.08542 l -0.19403,0.93486 h -0.2293 q -0.58209,0 -1.05834,0.19402 -0.47625,0.17639 -0.61736,0.88195 l -1.9932,9.50737 h 2.9457 q 0.97014,0 1.44639,-0.47625 0.49389,-0.47625 0.82903,-1.44639 l 0.3175,-0.93486 h 1.12889 l -0.97014,3.93347 z"
         id="path2" />
    </g>
  </g>
</svg>
