<?xml version="1.0" encoding="UTF-8" standalone="no"?>
<!-- Created with Inkscape (http://www.inkscape.org/) -->

<svg
   width="179.896mm"
   height="24.755077mm"
   viewBox="0 0 179.896 24.755077"
   version="1.1"
   id="svg1"
   inkscape:version="1.4.1-rc (06eac75fbf, 2025-03-29)"
   sodipodi:docname="touch-grass.svg"
   xmlns:inkscape="http://www.inkscape.org/namespaces/inkscape"
   xmlns:sodipodi="http://sodipodi.sourceforge.net/DTD/sodipodi-0.dtd"
   xmlns="http://www.w3.org/2000/svg"
   xmlns:svg="http://www.w3.org/2000/svg">
  <sodipodi:namedview
     id="namedview1"
     pagecolor="#ffffff"
     bordercolor="#000000"
     borderopacity="0.25"
     inkscape:showpageshadow="2"
     inkscape:pageopacity="0.0"
     inkscape:pagecheckerboard="0"
     inkscape:deskcolor="#d1d1d1"
     inkscape:document-units="mm"
     inkscape:zoom="1.0053654"
     inkscape:cx="338.1855"
     inkscape:cy="43.765182"
     inkscape:window-width="1920"
     inkscape:window-height="1005"
     inkscape:window-x="0"
     inkscape:window-y="0"
     inkscape:window-maximized="1"
     inkscape:current-layer="svg1" />
  <defs
     id="defs1" />
  <path
     d="M 0,7.3793939 V 5.1221674 l 13.109277,5.1841796 v 2.058789 L 0,17.549316 V 15.279687 L 10.541992,11.348144 Z M 21.815722,1.4634761 v 3.9439452 h 5.18418 v 1.7735352 h -5.18418 v 7.5406245 q 0,1.537891 0.58291,2.145606 0.58291,0.607715 2.033985,0.607715 h 2.567285 v 1.823144 h -2.790528 q -2.567285,0 -3.621484,-1.029394 -1.054199,-1.029395 -1.054199,-3.547071 V 7.1809565 H 15.82539 V 5.4074213 h 3.708301 V 1.4634761 Z m 15.316894,5.5438475 q -1.736328,0 -2.629297,1.3518555 -0.892968,1.3518554 -0.892968,4.0059569 0,2.641699 0.892968,4.005957 0.892969,1.351855 2.629297,1.351855 1.748731,0 2.6417,-1.351855 0.892968,-1.364258 0.892968,-4.005957 0,-2.6541015 -0.892968,-4.0059569 -0.892969,-1.3518555 -2.6417,-1.3518555 z m 0,-1.9347656 q 2.889746,0 4.415235,1.8727539 1.53789,1.8727539 1.53789,5.4198241 0,3.559473 -1.525488,5.432227 -1.525488,1.860351 -4.427637,1.860351 -2.889746,0 -4.415234,-1.860351 -1.525488,-1.872754 -1.525488,-5.432227 0,-3.5470702 1.525488,-5.4198241 Q 34.24287,5.072558 37.132616,5.072558 Z m 10.070701,8.966894 V 5.432226 h 2.282031 v 8.607226 q 0,1.872754 0.657325,2.753321 0.669726,0.880566 2.058789,0.880566 1.612304,0 2.468066,-1.128613 0.855762,-1.141016 0.855762,-3.261817 V 5.432226 h 2.294433 v 13.86582 H 55.52529 v -2.083594 q -0.607715,1.203028 -1.661914,1.823145 -1.041797,0.620117 -2.443262,0.620117 -2.133203,0 -3.175,-1.389062 -1.041797,-1.401465 -1.041797,-4.2292 z m 26.032521,4.551661 q -0.917773,0.5333 -1.897558,0.79375 -0.967383,0.272851 -1.984375,0.272851 -3.22461,0 -5.047754,-1.934766 -1.810742,-1.934765 -1.810742,-5.357812 0,-3.4230468 1.810742,-5.3578124 1.823144,-1.9347656 5.047754,-1.9347656 1.004589,0 1.95957,0.2604493 0.95498,0.2604492 1.922363,0.8061523 v 2.3936523 q -0.905371,-0.8061523 -1.823144,-1.1658203 -0.905371,-0.359668 -2.058789,-0.359668 -2.145606,0 -3.299024,1.3890625 -1.153418,1.3890625 -1.153418,3.9687499 0,2.567285 1.153418,3.96875 1.165821,1.389062 3.299024,1.389062 1.190625,0 2.133203,-0.359667 0.942578,-0.372071 1.74873,-1.141016 z M 88.403906,10.69082 v 8.607226 H 86.109473 V 10.69082 q 0,-1.8727542 -0.657325,-2.7533206 -0.657324,-0.8805664 -2.058789,-0.8805664 -1.599902,0 -2.468066,1.1410156 -0.855762,1.1286133 -0.855762,3.2494144 v 7.850683 H 77.7875 V -4.7311187e-7 h 2.282031 V 7.491015 Q 80.677246,6.3003901 81.719043,5.6926752 82.76084,5.072558 84.187109,5.072558 q 2.120801,0 3.162598,1.4014649 1.054199,1.3890624 1.054199,4.2167971 z m 28.190524,1.550293 q 0,-2.5672855 -0.84336,-3.8943363 -0.83096,-1.3394531 -2.43086,-1.3394531 -1.67432,0 -2.55488,1.3394531 -0.88057,1.3270508 -0.88057,3.8943363 0,2.567285 0.88057,3.91914 0.89297,1.339453 2.57968,1.339453 1.5751,0 2.40606,-1.351855 0.84336,-1.351856 0.84336,-3.906738 z m 2.28203,6.163964 q 0,3.125391 -1.47588,4.737696 -1.47588,1.612304 -4.34082,1.612304 -0.94258,0 -1.97197,-0.173633 -1.0294,-0.173632 -2.05879,-0.508496 v -2.257226 q 1.21543,0.570508 2.20762,0.843359 0.99218,0.272852 1.82314,0.272852 1.84795,0 2.69131,-1.00459 0.84336,-1.00459 0.84336,-3.187402 v -0.09922 -1.550293 q -0.5457,1.16582 -1.48828,1.736328 -0.94258,0.570508 -2.29444,0.570508 -2.43086,0 -3.88193,-1.947168 -1.45107,-1.947168 -1.45107,-5.208984 0,-3.2742191 1.45107,-5.221387 1.45107,-1.947168 3.88193,-1.947168 1.33946,0 2.26963,0.5333008 0.93018,0.5333008 1.51309,1.6495117 V 5.4570307 h 2.28203 z M 135.57002,8.2723627 q -0.73174,-0.5705078 -1.48828,-0.830957 -0.75655,-0.2604492 -1.66192,-0.2604492 -2.1332,0 -3.26182,1.3394531 -1.12861,1.3394531 -1.12861,3.8695314 v 6.908105 h -2.29443 V 5.4074213 h 2.29443 v 2.7161133 q 0.57051,-1.4758789 1.74873,-2.2572266 1.19063,-0.79375 2.81533,-0.79375 0.84336,0 1.5751,0.2108399 0.73174,0.2108398 1.40147,0.6573242 z m 9.67382,4.0431643 h -0.75654 q -1.99678,0 -3.01377,0.706933 -1.00459,0.694532 -1.00459,2.083594 0,1.252637 0.75654,1.947168 0.75654,0.694531 2.096,0.694531 1.88515,0 2.96416,-1.302246 1.079,-1.314648 1.0914,-3.621484 v -0.508496 z m 4.42764,-0.942578 v 7.925097 h -2.29444 v -2.058789 q -0.73174,1.240234 -1.84795,1.835547 -1.10381,0.58291 -2.69131,0.58291 -2.1208,0 -3.38584,-1.190625 -1.26504,-1.203027 -1.26504,-3.212207 0,-2.319238 1.5503,-3.522265 1.56269,-1.203028 4.57646,-1.203028 h 3.06338 v -0.359668 q -0.0124,-1.6619138 -0.84336,-2.4060544 -0.83095,-0.756543 -2.6541,-0.756543 -1.16582,0 -2.35644,0.3348633 -1.19063,0.3348633 -2.31924,0.9797852 V 6.0399408 q 1.26504,-0.4836914 2.41845,-0.7193359 1.16582,-0.2480469 2.25723,-0.2480469 1.72393,0 2.93936,0.5084961 1.22783,0.5084961 1.98437,1.5254883 0.47129,0.6201172 0.66973,1.5378906 0.19844,0.9053711 0.19844,2.728516 z M 163.89697,5.8911127 V 8.1235346 Q 162.91719,7.5530268 161.925,7.2677729 160.93281,6.982519 159.90342,6.982519 q -1.5503,0 -2.31924,0.508496 -0.75654,0.4960938 -0.75654,1.5254883 0,0.9301758 0.5705,1.3890627 0.57051,0.458886 2.84014,0.892969 l 0.91777,0.173632 q 1.69913,0.322461 2.56729,1.289844 0.88057,0.967383 0.88057,2.517676 0,2.058789 -1.46348,3.224609 -1.46348,1.153418 -4.06797,1.153418 -1.02939,0 -2.15801,-0.223242 -1.12861,-0.21084 -2.44326,-0.644922 v -2.356445 q 1.27744,0.657324 2.44326,0.992187 1.16582,0.322461 2.20762,0.322461 1.51309,0 2.34404,-0.607715 0.83096,-0.620117 0.83096,-1.723925 0,-1.5875 -3.03857,-2.195215 l -0.0992,-0.02481 -0.85576,-0.173633 q -1.97198,-0.384472 -2.87735,-1.289843 -0.90537,-0.917774 -0.90537,-2.4928715 0,-1.9967773 1.35186,-3.0757812 1.35185,-1.0914063 3.85713,-1.0914063 1.11621,0 2.1456,0.2108399 1.0294,0.1984375 2.02158,0.6077148 z m 15.29209,0 V 8.1235346 Q 178.20927,7.5530268 177.21708,7.2677729 176.2249,6.982519 175.1955,6.982519 q -1.55029,0 -2.31924,0.508496 -0.75654,0.4960938 -0.75654,1.5254883 0,0.9301758 0.57051,1.3890627 0.57051,0.458886 2.84013,0.892969 l 0.91778,0.173632 q 1.69912,0.322461 2.56728,1.289844 0.88057,0.967383 0.88057,2.517676 0,2.058789 -1.46348,3.224609 -1.46347,1.153418 -4.06797,1.153418 -1.02939,0 -2.158,-0.223242 -1.12862,-0.21084 -2.44326,-0.644922 v -2.356445 q 1.27744,0.657324 2.44326,0.992187 1.16582,0.322461 2.20761,0.322461 1.51309,0 2.34405,-0.607715 0.83095,-0.620117 0.83095,-1.723925 0,-1.5875 -3.03857,-2.195215 l -0.0992,-0.02481 -0.85576,-0.173633 q -1.97197,-0.384472 -2.87734,-1.289843 -0.90538,-0.917774 -0.90538,-2.4928715 0,-1.9967773 1.35186,-3.0757812 1.35186,-1.0914063 3.85713,-1.0914063 1.11621,0 2.1456,0.2108399 1.0294,0.1984375 2.02159,0.6077148 z"
     id="text1"
     style="font-size:25.4px;font-family:'MesloLGL Nerd Font Mono';-inkscape-font-specification:'MesloLGL Nerd Font Mono';stroke-width:0.264583"
     aria-label="&gt;touch grass" />
</svg>
