<svg width="679.922" height="93.562" viewBox="0 0 179.896 24.755" xmlns="http://www.w3.org/2000/svg">
    <path
        d="M0 7.38V5.121l13.11 5.184v2.06L0 17.548v-2.27l10.542-3.93zm21.816-5.917v3.944H27v1.774h-5.184v7.54q0 1.538.583 2.146.583.608 2.034.608H27v1.823h-2.79q-2.568 0-3.622-1.03-1.054-1.029-1.054-3.546V7.18h-3.709V5.407h3.709V1.463zm15.317 5.544q-1.737 0-2.63 1.352-.893 1.352-.893 4.006 0 2.642.893 4.006.893 1.352 2.63 1.352 1.748 0 2.641-1.352.893-1.364.893-4.006 0-2.654-.893-4.006-.893-1.352-2.641-1.352zm0-1.934q2.89 0 4.415 1.872 1.538 1.873 1.538 5.42 0 3.56-1.526 5.432-1.525 1.86-4.427 1.86-2.89 0-4.416-1.86-1.525-1.872-1.525-5.432 0-3.547 1.525-5.42 1.526-1.872 4.416-1.872zm10.07 8.966V5.432h2.282v8.607q0 1.873.658 2.754.67.88 2.058.88 1.613 0 2.469-1.128.855-1.141.855-3.262v-7.85h2.295v13.865h-2.295v-2.084q-.607 1.203-1.662 1.824-1.041.62-2.443.62-2.133 0-3.175-1.39-1.042-1.4-1.042-4.229zm26.033 4.552q-.918.533-1.898.794-.967.273-1.984.273-3.225 0-5.048-1.935-1.81-1.935-1.81-5.358 0-3.423 1.81-5.358 1.823-1.934 5.048-1.934 1.004 0 1.96.26.954.26 1.922.806v2.394q-.906-.806-1.823-1.166-.906-.36-2.06-.36-2.145 0-3.298 1.39Q64.9 9.784 64.9 12.364q0 2.567 1.154 3.969 1.166 1.389 3.299 1.389 1.19 0 2.133-.36.943-.372 1.749-1.14zm15.168-7.9v8.607h-2.295v-8.607q0-1.873-.657-2.754-.657-.88-2.059-.88-1.6 0-2.468 1.14-.855 1.13-.855 3.25v7.851h-2.282V0h2.282v7.491q.607-1.19 1.649-1.798 1.042-.62 2.468-.62 2.12 0 3.163 1.401 1.054 1.39 1.054 4.217zm28.19 1.55q0-2.567-.843-3.894-.83-1.34-2.43-1.34-1.675 0-2.556 1.34-.88 1.327-.88 3.894t.88 3.92q.893 1.339 2.58 1.339 1.575 0 2.406-1.352.843-1.352.843-3.907zm2.282 6.164q0 3.125-1.475 4.738-1.476 1.612-4.341 1.612-.943 0-1.972-.174-1.03-.173-2.059-.508v-2.257q1.215.57 2.208.843.992.273 1.823.273 1.848 0 2.691-1.005.843-1.004.843-3.187V17.09q-.545 1.166-1.488 1.737-.942.57-2.294.57-2.431 0-3.882-1.947t-1.451-5.209q0-3.274 1.45-5.221 1.452-1.947 3.883-1.947 1.34 0 2.27.533.93.533 1.512 1.65V5.456h2.282zM135.57 8.272q-.732-.57-1.488-.83-.757-.261-1.662-.261-2.133 0-3.262 1.34-1.129 1.339-1.129 3.869v6.908h-2.294V5.408h2.294v2.716q.57-1.476 1.75-2.258 1.19-.793 2.814-.793.844 0 1.576.21.731.211 1.401.658zm9.674 4.044h-.757q-1.996 0-3.013.706-1.005.695-1.005 2.084 0 1.253.756 1.947.757.695 2.096.695 1.886 0 2.965-1.302 1.079-1.315 1.091-3.622v-.508zm4.427-.943v7.925h-2.294v-2.059q-.732 1.24-1.848 1.836-1.104.583-2.691.583-2.121 0-3.386-1.19-1.265-1.204-1.265-3.213 0-2.32 1.55-3.522 1.563-1.203 4.577-1.203h3.063v-.36q-.012-1.662-.843-2.406-.831-.757-2.654-.757-1.166 0-2.357.335-1.19.335-2.32.98V6.04q1.266-.484 2.42-.72 1.165-.247 2.257-.247 1.724 0 2.939.508 1.228.509 1.984 1.526.472.62.67 1.537.198.906.198 2.729zm14.226-5.482v2.233q-.98-.571-1.972-.856-.992-.285-2.022-.285-1.55 0-2.319.508-.756.496-.756 1.526 0 .93.57 1.389.57.458 2.84.893l.918.173q1.7.323 2.567 1.29.88.967.88 2.518 0 2.058-1.463 3.224-1.463 1.154-4.068 1.154-1.029 0-2.158-.224-1.128-.21-2.443-.644v-2.357q1.278.657 2.443.992 1.166.323 2.208.323 1.513 0 2.344-.608.831-.62.831-1.724 0-1.587-3.038-2.195l-.1-.025-.855-.174q-1.972-.384-2.878-1.29-.905-.917-.905-2.492 0-1.997 1.352-3.076 1.352-1.091 3.857-1.091 1.116 0 2.145.21 1.03.199 2.022.608zm15.292 0v2.233q-.98-.571-1.972-.856-.992-.285-2.022-.285-1.55 0-2.319.508-.756.496-.756 1.526 0 .93.57 1.389.57.458 2.84.893l.918.173q1.7.323 2.567 1.29.881.967.881 2.518 0 2.058-1.463 3.224-1.464 1.154-4.068 1.154-1.03 0-2.158-.224-1.13-.21-2.444-.644v-2.357q1.278.657 2.444.992 1.165.323 2.207.323 1.513 0 2.344-.608.831-.62.831-1.724 0-1.587-3.038-2.195l-.1-.025-.855-.174q-1.972-.384-2.878-1.29-.905-.917-.905-2.492 0-1.997 1.352-3.076 1.352-1.091 3.857-1.091 1.116 0 2.145.21 1.03.199 2.022.608z" />
</svg>